<?xml version="1.0" encoding="UTF-8"?>
<svg width="1920" height="1080" viewBox="0 0 1920 1080" xmlns="http://www.w3.org/2000/svg" preserveAspectRatio="xMidYMid slice">
  <defs>
    <linearGradient id="bgGrad" x1="0%" y1="0%" x2="100%" y2="100%">
      <stop offset="0%" stop-color="#0b001f"/>
      <stop offset="100%" stop-color="#1f000d"/>
    </linearGradient>
    <linearGradient id="shardGrad1" x1="0%" y1="0%" x2="100%" y2="100%">
      <stop offset="0%" stop-color="#a57f0a" stop-opacity="0.7"/>
      <stop offset="100%" stop-color="#435baf" stop-opacity="0.3"/>
    </linearGradient>
    <linearGradient id="shardGrad2" x1="0%" y1="0%" x2="100%" y2="100%">
      <stop offset="0%" stop-color="#7ecc85" stop-opacity="0.7"/>
      <stop offset="100%" stop-color="#478db3" stop-opacity="0.3"/>
    </linearGradient>
    <linearGradient id="shardGrad3" x1="0%" y1="0%" x2="100%" y2="100%">
      <stop offset="0%" stop-color="#3b06e7" stop-opacity="0.7"/>
      <stop offset="100%" stop-color="#ca5747" stop-opacity="0.3"/>
    </linearGradient>
    <linearGradient id="shardGrad4" x1="0%" y1="0%" x2="100%" y2="100%">
      <stop offset="0%" stop-color="#80146e" stop-opacity="0.7"/>
      <stop offset="100%" stop-color="#ea15f2" stop-opacity="0.3"/>
    </linearGradient>
    <linearGradient id="shardGrad5" x1="0%" y1="0%" x2="100%" y2="100%">
      <stop offset="0%" stop-color="#5a9be4" stop-opacity="0.7"/>
      <stop offset="100%" stop-color="#217008" stop-opacity="0.3"/>
    </linearGradient>
    <radialGradient id="waveGrad" cx="50%" cy="50%" r="50%">
      <stop offset="0%" stop-color="#08f7fe" stop-opacity="0.5"/>
      <stop offset="100%" stop-color="#4603fc" stop-opacity="0.1"/>
    </radialGradient>
    <filter id="glow" x="-50%" y="-50%" width="200%" height="200%">
      <feGaussianBlur in="SourceGraphic" stdDeviation="15" result="blur"/>
      <feMerge>
        <feMergeNode in="blur"/>
        <feMergeNode in="SourceGraphic"/>
      </feMerge>
    </filter>
    <filter id="blurSmall" x="-10%" y="-10%" width="120%" height="120%">
      <feGaussianBlur in="SourceGraphic" stdDeviation="3"/>
    </filter>
  </defs>
  <rect width="100%" height="100%" fill="url(#bgGrad)"/>
  <polygon points="778.8,223.8 656.5,348.7 550.0,259.3 514.9,152.6 671.9,99.1" fill="url(#shardGrad3)" opacity="0.29" />
  <polygon points="479.1,796.3 357.6,882.5 334.1,707.4" fill="url(#shardGrad3)" opacity="0.59" />
  <polygon points="1274.4,454.5 1155.5,703.6 860.4,465.2 1137.0,245.5" fill="url(#shardGrad1)" opacity="0.35" filter="url(#blurSmall)"/>
  <polygon points="1292.1,154.2 1115.6,371.8 821.4,201.1 1096.5,2.9" fill="url(#shardGrad1)" opacity="0.64" filter="url(#blurSmall)"/>
  <polygon points="1678.0,734.9 1493.9,1070.1 1285.4,918.5 1014.8,704.9 1240.8,447.8 1452.3,503.0" fill="url(#shardGrad4)" opacity="0.59" filter="url(#blurSmall)"/>
  <polygon points="939.2,80.7 760.5,194.3 622.6,143.6 564.7,14.4 581.7,-120.5 808.2,-187.9" fill="url(#shardGrad1)" opacity="0.63" />
  <polygon points="1734.9,50.4 1636.4,128.2 1463.9,155.5 1537.1,16.7 1673.2,-52.8" fill="url(#shardGrad1)" opacity="0.58" />
  <polygon points="417.5,480.1 13.9,659.9 61.9,333.1" fill="url(#shardGrad5)" opacity="0.32" filter="url(#blurSmall)"/>
  <polygon points="367.7,622.0 199.5,776.1 212.8,579.4" fill="url(#shardGrad1)" opacity="0.21" />
  <polygon points="1915.5,1032.6 1791.5,1208.6 1538.6,1061.3 1763.9,724.1" fill="url(#shardGrad2)" opacity="0.25" />
  <polygon points="468.6,961.8 391.1,990.6 347.6,954.3 399.9,889.3" fill="url(#shardGrad1)" opacity="0.48" />
  <polygon points="717.8,70.3 322.3,204.5 201.9,56.3 339.8,-212.5" fill="url(#shardGrad5)" opacity="0.51" filter="url(#blurSmall)"/>
  <polygon points="240.6,1045.0 135.8,1205.2 -102.8,1238.2 -102.4,860.4 229.1,815.5" fill="url(#shardGrad3)" opacity="0.33" />
  <polygon points="1439.3,410.1 1433.8,493.4 1364.0,451.8 1335.1,405.5 1360.2,351.5 1429.4,361.1" fill="url(#shardGrad1)" opacity="0.6" />
  <polygon points="1782.9,623.5 1740.5,649.6 1718.6,647.4 1657.5,614.3 1682.8,560.6 1759.0,555.0" fill="url(#shardGrad3)" opacity="0.67" />
  <polygon points="948.8,493.6 951.0,611.7 803.8,587.7 819.1,427.8 923.2,452.8" fill="url(#shardGrad3)" opacity="0.57" />
  <polygon points="990.2,396.3 884.5,468.7 876.8,312.1" fill="url(#shardGrad3)" opacity="0.4" />
  <polygon points="1353.4,83.8 1242.6,275.3 1061.7,94.1 1229.0,-57.7" fill="url(#shardGrad4)" opacity="0.43" filter="url(#blurSmall)"/>
  <polygon points="341.5,833.9 182.8,945.6 -41.5,955.3 -19.7,757.4 180.4,575.0" fill="url(#shardGrad5)" opacity="0.23" filter="url(#blurSmall)"/>
  <polygon points="695.1,118.8 409.2,262.3 360.7,-129.4" fill="url(#shardGrad4)" opacity="0.42" />
  <polygon points="1854.5,433.4 1693.4,598.6 1544.1,473.9 1368.6,263.5 1668.7,178.2" fill="url(#shardGrad2)" opacity="0.59" />
  <polygon points="1680.0,700.2 1664.7,856.9 1538.2,828.3 1485.6,677.6 1552.0,596.8 1647.4,536.7" fill="url(#shardGrad1)" opacity="0.3" />
  <polygon points="1233.5,155.9 1183.8,259.1 1038.8,195.9 1039.2,73.6 1163.0,78.3" fill="url(#shardGrad3)" opacity="0.69" />
  <polygon points="685.8,277.7 327.7,376.8 384.8,145.8" fill="url(#shardGrad2)" opacity="0.26" filter="url(#blurSmall)"/>
  <polygon points="909.7,654.2 839.5,755.3 772.1,645.6 843.1,607.7" fill="url(#shardGrad3)" opacity="0.21" />
  <polygon points="1193.2,337.3 1078.9,441.0 977.8,438.5 927.2,276.4 1093.7,218.7" fill="url(#shardGrad4)" opacity="0.31" />
  <polygon points="330.9,757.3 140.4,842.6 77.5,771.1 144.6,705.2" fill="url(#shardGrad4)" opacity="0.28" filter="url(#blurSmall)"/>
  <polygon points="1200.3,74.4 1157.4,126.1 1101.2,95.3 1012.7,-0.2 1169.1,-94.3" fill="url(#shardGrad4)" opacity="0.65" />
  <polygon points="1080.9,930.2 836.8,1085.8 661.6,1050.2 539.0,784.2 813.8,816.5" fill="url(#shardGrad2)" opacity="0.53" />
  <polygon points="646.4,1018.2 216.4,1317.4 272.4,881.4" fill="url(#shardGrad3)" opacity="0.66" filter="url(#blurSmall)"/>
  <polygon points="1127.1,315.7 1052.7,346.6 1050.4,227.3" fill="url(#shardGrad3)" opacity="0.44" />
  <polygon points="387.5,447.1 273.9,681.9 100.3,657.4 53.3,469.4 57.0,277.5 297.6,332.2" fill="url(#shardGrad2)" opacity="0.39" />
  <polygon points="1888.4,813.0 1810.6,992.7 1542.1,941.1 1328.8,728.6 1573.8,700.3 1731.7,547.0" fill="url(#shardGrad4)" opacity="0.38" />
  <polygon points="1898.9,594.9 1745.9,653.9 1559.2,702.3 1594.2,462.9 1760.6,456.7" fill="url(#shardGrad2)" opacity="0.47" />
  <polygon points="1914.0,1096.5 1796.0,1270.5 1502.3,1131.8 1752.5,754.8" fill="url(#shardGrad1)" opacity="0.69" />
  <polygon points="1220.1,115.5 1138.6,249.0 1015.6,219.5 1004.5,70.0 1167.6,13.6" fill="url(#shardGrad3)" opacity="0.62" filter="url(#blurSmall)"/>
  <polygon points="653.9,351.6 418.6,590.6 223.2,397.7 388.4,145.5" fill="url(#shardGrad5)" opacity="0.66" filter="url(#blurSmall)"/>
  <polygon points="1540.7,571.1 1385.3,706.7 1320.7,557.0 1415.0,459.3" fill="url(#shardGrad4)" opacity="0.31" />
  <polygon points="1535.1,461.5 1495.3,467.9 1459.9,466.3 1451.8,432.3 1492.8,407.8" fill="url(#shardGrad2)" opacity="0.27" filter="url(#blurSmall)"/>
  <polygon points="1779.0,37.7 1667.3,71.1 1596.7,81.7 1568.8,-43.3 1693.3,-72.8" fill="url(#shardGrad1)" opacity="0.58" />
  <polygon points="796.8,868.3 770.8,1057.1 534.0,1084.6 524.4,894.8 609.6,731.9 789.3,727.6" fill="url(#shardGrad3)" opacity="0.36" />
  <polygon points="93.5,977.2 78.0,993.3 53.6,1001.2 32.7,975.1 49.1,959.1 89.3,937.9" fill="url(#shardGrad3)" opacity="0.49" />
  <polygon points="919.4,1018.8 868.6,1120.0 720.7,1109.3 739.5,937.7 906.3,840.5" fill="url(#shardGrad2)" opacity="0.55" />
  <polygon points="267.9,970.8 33.0,1233.4 -14.3,788.2" fill="url(#shardGrad4)" opacity="0.43" />
  <polygon points="327.0,582.3 116.3,726.2 -100.5,651.8 -143.0,412.0 97.0,323.2" fill="url(#shardGrad5)" opacity="0.34" />
  <polygon points="1265.8,800.2 1224.0,917.1 1158.8,793.9 1206.5,695.8" fill="url(#shardGrad5)" opacity="0.65" />
  <polygon points="913.1,139.7 861.6,157.0 807.5,133.8 869.1,61.4" fill="url(#shardGrad4)" opacity="0.41" />
  <polygon points="1861.3,367.6 1725.8,443.1 1731.7,346.9" fill="url(#shardGrad1)" opacity="0.63" />
  <polygon points="278.5,817.0 18.3,972.7 -66.7,623.4" fill="url(#shardGrad2)" opacity="0.24" />
  <polygon points="815.6,760.6 789.8,785.8 737.0,806.3 704.2,746.7 751.6,726.4 809.3,692.8" fill="url(#shardGrad2)" opacity="0.42" filter="url(#blurSmall)"/>
  <polygon points="731.9,1028.8 531.1,1099.2 481.6,879.5" fill="url(#shardGrad1)" opacity="0.36" />
  <polygon points="272.2,321.0 39.6,395.6 43.9,232.3" fill="url(#shardGrad4)" opacity="0.66" filter="url(#blurSmall)"/>
  <polygon points="1748.5,616.8 1691.7,823.3 1476.1,714.9 1357.5,615.4 1428.5,347.3 1646.8,354.3" fill="url(#shardGrad1)" opacity="0.42" />
  <polygon points="795.1,654.9 699.1,769.0 713.8,613.1" fill="url(#shardGrad1)" opacity="0.35" filter="url(#blurSmall)"/>
  <polygon points="73.6,481.7 61.6,506.6 31.1,533.6 3.1,476.6 34.2,448.0 65.6,462.0" fill="url(#shardGrad3)" opacity="0.23" filter="url(#blurSmall)"/>
  <polygon points="447.8,949.9 371.3,1168.8 107.8,1117.6 157.8,863.2 359.9,756.8" fill="url(#shardGrad5)" opacity="0.62" />
  <polygon points="1943.2,41.0 1769.9,95.5 1634.6,-5.4 1786.3,-176.4" fill="url(#shardGrad2)" opacity="0.66" />
  <polygon points="176.5,934.0 36.1,1014.9 -68.5,929.5 64.5,735.5" fill="url(#shardGrad3)" opacity="0.61" />
  <polygon points="1731.2,105.6 1515.5,315.7 1284.4,191.8 1219.8,-105.4 1509.3,-150.0" fill="url(#shardGrad4)" opacity="0.66" />
  <polygon points="1953.6,593.9 1932.3,690.0 1779.2,711.3 1818.8,539.1 1958.1,424.2" fill="url(#shardGrad4)" opacity="0.39" />
  <polygon points="839.1,440.2 776.8,527.3 680.5,442.1 673.8,388.4 767.0,324.1" fill="url(#shardGrad2)" opacity="0.36" />
  <polygon points="1519.3,1060.4 1470.7,1178.3 1321.6,1227.2 1259.1,1030.5 1323.8,921.2 1546.9,841.0" fill="url(#shardGrad4)" opacity="0.28" filter="url(#blurSmall)"/>
  <polygon points="1079.2,769.1 1001.7,803.7 891.1,799.4 943.4,733.9 1020.2,661.0" fill="url(#shardGrad2)" opacity="0.33" />
  <polygon points="1799.8,496.7 1773.0,538.5 1724.2,501.2 1766.4,481.4" fill="url(#shardGrad2)" opacity="0.64" />
  <polygon points="1809.6,399.5 1657.3,594.6 1411.2,620.4 1286.9,416.0 1406.9,255.1 1556.5,263.0" fill="url(#shardGrad2)" opacity="0.51" />
  <polygon points="340.2,628.3 132.4,743.5 101.5,527.1" fill="url(#shardGrad5)" opacity="0.42" />
  <polygon points="1401.4,155.5 1143.7,254.2 1155.4,9.3" fill="url(#shardGrad4)" opacity="0.43" filter="url(#blurSmall)"/>
  <polygon points="2097.5,751.4 1785.4,883.5 1632.1,761.6 1760.6,458.1" fill="url(#shardGrad5)" opacity="0.26" />
  <polygon points="1211.3,26.5 1186.5,214.9 942.2,142.1 883.3,-121.0 1137.5,-124.1" fill="url(#shardGrad2)" opacity="0.31" />
  <polygon points="1462.7,195.2 1380.7,359.2 1159.7,273.3 1197.3,130.5 1363.6,11.5" fill="url(#shardGrad5)" opacity="0.5" />
  <polygon points="157.0,833.6 112.9,859.1 62.8,921.6 36.9,839.1 79.2,799.4 136.6,760.9" fill="url(#shardGrad5)" opacity="0.42" />
  <polygon points="1302.4,540.7 1086.6,841.5 821.2,547.5 1079.3,372.3" fill="url(#shardGrad4)" opacity="0.65" />
  <polygon points="217.9,477.9 125.5,594.7 65.3,476.1 138.3,387.2" fill="url(#shardGrad1)" opacity="0.5" />
  <polygon points="581.3,1021.6 539.1,1159.9 291.5,1253.7 186.4,1015.7 321.7,855.4 482.6,883.8" fill="url(#shardGrad1)" opacity="0.43" filter="url(#blurSmall)"/>
  <polygon points="1479.8,102.3 1434.8,209.6 1307.9,205.7 1209.7,91.2 1285.1,18.1 1445.3,-56.8" fill="url(#shardGrad1)" opacity="0.59" />
  <polygon points="1181.3,850.0 1156.2,902.6 1104.8,874.6 1099.1,818.6 1149.9,809.6" fill="url(#shardGrad1)" opacity="0.43" />
  <polygon points="711.9,123.5 617.7,292.7 335.8,373.0 365.7,67.5 398.8,-184.8 558.4,-37.6" fill="url(#shardGrad1)" opacity="0.23" filter="url(#blurSmall)"/>
  <polygon points="560.5,950.9 482.5,1011.7 392.7,1005.4 421.9,927.2 486.8,852.4" fill="url(#shardGrad4)" opacity="0.42" />
  <polygon points="1524.3,627.7 1389.6,865.7 1270.3,673.6 1274.5,545.0 1402.8,536.6" fill="url(#shardGrad5)" opacity="0.48" />
  <polygon points="1949.1,538.3 1729.1,668.6 1726.2,365.5" fill="url(#shardGrad3)" opacity="0.63" />
  <polygon points="1291.8,519.1 1183.3,710.7 960.3,716.6 935.0,507.1 923.7,271.7 1188.6,266.0" fill="url(#shardGrad5)" opacity="0.54" />
  <polygon points="502.8,299.0 455.8,346.4 390.4,292.5 464.1,250.1" fill="url(#shardGrad4)" opacity="0.64" filter="url(#blurSmall)"/>
  <polygon points="1786.5,788.1 1701.0,1073.6 1402.4,933.1 1292.2,632.7 1678.8,578.4" fill="url(#shardGrad1)" opacity="0.59" />
  <polygon points="954.0,1000.5 933.4,1086.9 837.0,1097.8 762.7,998.5 841.9,927.5 918.0,954.8" fill="url(#shardGrad4)" opacity="0.51" filter="url(#blurSmall)"/>
  <polygon points="1134.5,486.6 1126.8,505.8 1088.2,518.9 1072.0,486.5 1107.5,471.7 1125.7,460.4" fill="url(#shardGrad2)" opacity="0.38" />
  <polygon points="524.4,220.6 255.0,421.1 236.5,55.6" fill="url(#shardGrad2)" opacity="0.55" />
  <polygon points="481.5,1016.2 380.1,1080.9 358.7,840.5" fill="url(#shardGrad2)" opacity="0.59" />
  <polygon points="495.6,957.9 328.6,1052.8 163.6,1054.7 191.1,891.2 342.8,771.0" fill="url(#shardGrad5)" opacity="0.54" filter="url(#blurSmall)"/>
  <polygon points="1636.7,338.4 1454.8,557.2 1284.7,655.4 1213.7,408.5 1221.6,165.2 1452.9,243.0" fill="url(#shardGrad1)" opacity="0.33" filter="url(#blurSmall)"/>
  <polygon points="532.2,860.4 377.2,1022.3 252.2,1048.7 -6.4,902.3 270.4,743.7 439.2,666.1" fill="url(#shardGrad1)" opacity="0.56" />
  <polygon points="696.0,972.9 393.7,1124.2 481.7,874.2" fill="url(#shardGrad5)" opacity="0.25" />
  <polygon points="1687.4,109.9 1552.5,199.3 1497.8,136.5 1425.2,33.1 1552.6,40.6" fill="url(#shardGrad4)" opacity="0.68" />
  <polygon points="1132.8,232.6 955.0,524.5 770.8,270.8 714.3,128.1 947.4,-46.4" fill="url(#shardGrad2)" opacity="0.5" />
  <polygon points="1663.9,280.3 1556.7,446.0 1483.4,312.0 1546.0,154.8" fill="url(#shardGrad3)" opacity="0.42" />
  <polygon points="1560.6,849.8 1360.0,1047.6 1422.8,736.3" fill="url(#shardGrad3)" opacity="0.27" />
  <polygon points="1807.5,994.1 1592.0,1158.4 1361.5,953.2 1610.3,651.3" fill="url(#shardGrad5)" opacity="0.52" filter="url(#blurSmall)"/>
  <polygon points="948.6,644.6 738.0,741.9 516.3,847.3 359.3,677.5 579.0,522.3 810.0,436.9" fill="url(#shardGrad2)" opacity="0.37" />
  <polygon points="503.6,839.0 376.5,908.1 328.2,721.4" fill="url(#shardGrad5)" opacity="0.54" filter="url(#blurSmall)"/>
  <polygon points="1373.0,964.7 1083.6,1152.5 1096.1,808.3" fill="url(#shardGrad2)" opacity="0.32" />
  <polygon points="883.7,588.4 837.3,628.1 777.8,629.1 768.0,574.6 833.9,558.3" fill="url(#shardGrad2)" opacity="0.43" />
  <polygon points="1875.3,730.6 1763.6,919.3 1662.7,778.8 1614.7,658.1 1794.5,534.8" fill="url(#shardGrad3)" opacity="0.21" filter="url(#blurSmall)"/>
  <polygon points="648.5,209.7 489.1,389.6 292.7,365.2 302.0,91.9 564.0,-89.2" fill="url(#shardGrad1)" opacity="0.63" />
  <polygon points="569.7,84.2 275.0,336.5 222.1,-78.8" fill="url(#shardGrad2)" opacity="0.65" filter="url(#blurSmall)"/>
  <polygon points="638.6,1032.1 512.3,1069.5 528.7,973.1" fill="url(#shardGrad2)" opacity="0.61" />
  <polygon points="504.7,164.7 288.2,296.1 175.9,139.9 307.1,-182.8" fill="url(#shardGrad2)" opacity="0.27" />
  <polygon points="867.5,94.2 753.1,397.2 492.1,184.0 502.0,74.6 676.2,-179.5" fill="url(#shardGrad1)" opacity="0.63" filter="url(#blurSmall)"/>
  <polygon points="1294.2,900.0 1040.1,1070.9 977.6,627.8" fill="url(#shardGrad4)" opacity="0.54" filter="url(#blurSmall)"/>
  <polygon points="750.6,126.7 736.7,189.4 666.1,227.5 640.2,117.4 660.5,53.5 746.7,81.9" fill="url(#shardGrad1)" opacity="0.3" />
  <polygon points="509.7,587.0 394.0,722.2 225.5,590.3 403.1,431.0" fill="url(#shardGrad3)" opacity="0.66" />
  <polygon points="611.5,669.3 431.6,793.5 313.0,683.0 406.0,507.2" fill="url(#shardGrad3)" opacity="0.59" />
  <polygon points="1889.4,470.3 1670.8,581.2 1640.4,402.0" fill="url(#shardGrad2)" opacity="0.29" filter="url(#blurSmall)"/>
  <polygon points="1839.4,924.7 1718.6,1046.2 1602.6,888.7 1749.8,776.8" fill="url(#shardGrad5)" opacity="0.24" />
  <polygon points="2021.8,955.8 1826.8,1067.3 1590.3,984.2 1809.4,809.9" fill="url(#shardGrad1)" opacity="0.43" filter="url(#blurSmall)"/>
  <polygon points="67.1,348.4 55.2,378.2 21.5,363.5 32.2,330.6 56.9,323.4" fill="url(#shardGrad1)" opacity="0.44" />
  <polygon points="843.3,898.6 733.6,996.2 605.1,892.7 746.4,786.7" fill="url(#shardGrad4)" opacity="0.27" filter="url(#blurSmall)"/>
  <polygon points="1466.3,824.9 1385.0,985.6 1200.1,915.7 1218.9,772.6 1403.6,663.6" fill="url(#shardGrad4)" opacity="0.58" filter="url(#blurSmall)"/>
  <polygon points="1611.1,388.1 1565.0,550.0 1287.8,608.1 1377.6,285.8 1556.1,263.3" fill="url(#shardGrad1)" opacity="0.29" />
  <polygon points="596.6,981.9 431.2,1219.8 116.6,1120.3 227.4,907.0 428.2,736.6" fill="url(#shardGrad3)" opacity="0.66" filter="url(#blurSmall)"/>
  <polygon points="2053.7,562.4 1973.7,822.9 1553.3,778.2 1578.9,433.9 1880.0,373.9" fill="url(#shardGrad3)" opacity="0.38" />
  <polygon points="684.9,968.4 580.5,1046.9 428.0,1069.9 509.5,926.5 615.2,885.5" fill="url(#shardGrad3)" opacity="0.49" filter="url(#blurSmall)"/>
  <polygon points="617.8,212.6 405.1,369.2 431.5,114.3" fill="url(#shardGrad4)" opacity="0.67" />
  <polygon points="1407.1,619.6 1236.9,773.9 1109.4,765.2 880.4,623.9 1072.8,484.1 1352.2,396.3" fill="url(#shardGrad1)" opacity="0.39" filter="url(#blurSmall)"/>
  <polygon points="1752.4,12.0 1767.8,92.0 1658.9,82.4 1614.8,-2.5 1689.4,-19.7 1719.2,-20.0" fill="url(#shardGrad5)" opacity="0.25" />
  <polygon points="1081.1,1009.4 599.1,1271.7 675.0,856.0" fill="url(#shardGrad1)" opacity="0.38" />
  <polygon points="1398.7,684.9 1248.5,779.9 1284.6,626.0" fill="url(#shardGrad3)" opacity="0.44" />
  <polygon points="356.1,1015.3 291.2,1070.7 292.2,954.3" fill="url(#shardGrad2)" opacity="0.27" />
  <polygon points="1700.9,131.7 1683.5,145.7 1659.7,152.6 1644.1,130.1 1649.2,90.5 1691.6,104.0" fill="url(#shardGrad4)" opacity="0.2" />
  <polygon points="1900.2,239.7 1845.9,275.7 1855.7,230.9" fill="url(#shardGrad1)" opacity="0.63" />
  <polygon points="895.7,814.6 694.6,978.6 457.8,916.4 503.9,740.6 667.1,742.1" fill="url(#shardGrad1)" opacity="0.22" filter="url(#blurSmall)"/>
  <polygon points="1061.2,301.2 989.4,519.6 883.8,382.5 873.9,239.3 989.8,123.4" fill="url(#shardGrad2)" opacity="0.67" />
  <polygon points="1773.9,589.1 1690.5,657.9 1517.4,810.8 1396.7,549.5 1392.8,305.4 1746.2,311.7" fill="url(#shardGrad5)" opacity="0.49" />
  <polygon points="1747.5,984.4 1643.4,1193.4 1440.6,1184.3 1474.4,887.6 1657.0,881.7" fill="url(#shardGrad4)" opacity="0.3" />
  <polygon points="472.8,534.4 254.7,795.5 -25.7,511.3 285.6,410.5" fill="url(#shardGrad2)" opacity="0.47" />
  <polygon points="799.0,990.0 628.3,1133.2 418.2,1017.5 653.9,746.8" fill="url(#shardGrad2)" opacity="0.68" filter="url(#blurSmall)"/>
  <polygon points="1621.5,516.7 1471.2,675.0 1219.9,679.4 1222.5,513.3 1275.0,363.0 1410.5,386.2" fill="url(#shardGrad4)" opacity="0.29" />
  <polygon points="907.0,569.8 883.5,595.3 849.7,585.8 823.2,526.9 891.4,546.3" fill="url(#shardGrad1)" opacity="0.37" />
  <polygon points="378.7,921.8 342.4,981.7 270.6,929.8 330.3,886.9" fill="url(#shardGrad1)" opacity="0.42" />
  <polygon points="1990.2,924.8 1520.4,1135.4 1579.7,731.3" fill="url(#shardGrad2)" opacity="0.24" />
  <polygon points="537.4,340.2 520.2,421.4 465.3,389.9 410.2,331.2 468.1,297.5 551.4,254.5" fill="url(#shardGrad2)" opacity="0.41" />
  <polygon points="1233.5,1042.4 1091.3,1198.3 892.3,1071.6 1128.3,942.4" fill="url(#shardGrad1)" opacity="0.63" />
  <polygon points="2032.7,95.1 1912.2,288.7 1774.8,132.1 1888.0,58.6" fill="url(#shardGrad4)" opacity="0.58" />
  <polygon points="888.4,896.3 653.6,1018.6 343.9,1025.8 454.3,735.3 656.9,626.0" fill="url(#shardGrad4)" opacity="0.56" filter="url(#blurSmall)"/>
  <polygon points="1022.0,518.5 824.5,739.1 852.6,373.3" fill="url(#shardGrad2)" opacity="0.49" />
  <polygon points="1973.6,496.4 1791.6,718.9 1703.4,500.5 1804.0,255.3" fill="url(#shardGrad2)" opacity="0.65" />
  <polygon points="1307.2,79.2 946.8,339.1 974.3,-129.1" fill="url(#shardGrad5)" opacity="0.24" filter="url(#blurSmall)"/>
  <polygon points="1265.6,170.7 1140.8,394.3 924.0,166.8 1084.9,-89.1" fill="url(#shardGrad5)" opacity="0.45" />
  <polygon points="2005.0,528.3 1889.6,663.7 1771.1,519.1 1878.9,458.3" fill="url(#shardGrad3)" opacity="0.28" filter="url(#blurSmall)"/>
  <polygon points="717.2,220.5 617.8,298.5 405.0,361.4 441.1,81.1 626.3,22.9" fill="url(#shardGrad2)" opacity="0.44" />
  <polygon points="1892.6,1080.1 1799.0,1310.0 1624.5,1055.8 1805.1,842.0" fill="url(#shardGrad1)" opacity="0.64" />
  <polygon points="544.3,1078.8 442.4,1327.2 272.8,1255.8 251.4,1075.9 266.9,861.0 453.4,875.3" fill="url(#shardGrad2)" opacity="0.32" filter="url(#blurSmall)"/>
  <polygon points="281.8,26.1 68.4,280.1 -110.7,2.5 125.1,-194.1" fill="url(#shardGrad4)" opacity="0.36" />
  <polygon points="905.5,353.9 796.3,503.2 570.5,319.7 809.1,174.7" fill="url(#shardGrad5)" opacity="0.64" />
  <polygon points="569.6,59.6 522.0,171.3 405.0,135.8 419.6,64.8 426.8,-19.9 479.2,21.0" fill="url(#shardGrad1)" opacity="0.57" filter="url(#blurSmall)"/>
  <polygon points="1685.1,407.7 1570.0,549.0 1390.3,553.2 1395.3,328.8 1603.2,195.8" fill="url(#shardGrad2)" opacity="0.52" filter="url(#blurSmall)"/>
  <polygon points="1510.4,928.1 1454.1,970.5 1384.4,917.6 1463.2,836.6" fill="url(#shardGrad2)" opacity="0.46" />
  <polygon points="1702.2,190.1 1732.4,328.9 1549.1,295.3 1428.1,178.2 1543.8,23.9 1669.5,43.0" fill="url(#shardGrad1)" opacity="0.67" />
  <polygon points="288.9,809.2 96.0,893.0 96.4,696.6" fill="url(#shardGrad5)" opacity="0.37" />
  <polygon points="479.0,857.8 389.2,974.8 185.2,982.0 156.1,826.0 227.9,720.8 328.4,736.2" fill="url(#shardGrad1)" opacity="0.4" />
  <polygon points="842.8,537.2 762.1,581.9 748.3,438.1" fill="url(#shardGrad3)" opacity="0.5" />
  <polygon points="1355.9,639.9 1232.9,718.6 1083.4,647.6 1215.5,479.6" fill="url(#shardGrad5)" opacity="0.43" />
  <polygon points="1083.5,252.4 989.9,295.3 1004.2,224.7" fill="url(#shardGrad3)" opacity="0.58" />
  <polygon points="2085.8,140.9 1856.7,308.8 1482.6,126.2 1811.1,27.5" fill="url(#shardGrad2)" opacity="0.29" />
  <polygon points="724.2,131.6 397.9,372.2 351.7,-64.7" fill="url(#shardGrad4)" opacity="0.23" filter="url(#blurSmall)"/>
  <polygon points="512.2,270.5 341.8,355.0 321.1,85.5" fill="url(#shardGrad3)" opacity="0.26" filter="url(#blurSmall)"/>
  <polygon points="1234.1,69.9 1150.6,121.1 1087.9,107.1 1088.8,2.6 1162.2,7.5" fill="url(#shardGrad1)" opacity="0.44" filter="url(#blurSmall)"/>
  <polygon points="920.2,311.3 791.8,425.4 700.2,416.2 520.5,336.7 661.4,205.3 793.0,175.5" fill="url(#shardGrad1)" opacity="0.44" filter="url(#blurSmall)"/>
  <polygon points="604.2,461.0 583.0,507.7 542.6,496.8 526.1,460.7 531.3,426.0 569.6,429.7" fill="url(#shardGrad2)" opacity="0.37" filter="url(#blurSmall)"/>
  <polygon points="788.2,938.6 702.3,1058.9 608.3,933.3 729.7,772.3" fill="url(#shardGrad4)" opacity="0.37" filter="url(#blurSmall)"/>
  <polygon points="1621.9,-2.6 1309.5,334.1 1303.9,-119.7" fill="url(#shardGrad1)" opacity="0.25" />
  <polygon points="1706.5,290.4 1541.1,472.4 1314.9,346.5 1322.5,146.4 1520.8,118.1" fill="url(#shardGrad4)" opacity="0.64" />
  <polygon points="180.5,848.0 130.0,940.6 21.9,963.3 -141.3,820.3 -12.3,606.9 191.4,682.3" fill="url(#shardGrad3)" opacity="0.22" />
  <polygon points="543.9,1070.2 502.0,1117.9 470.4,1128.7 419.4,1071.2 471.8,1058.0 521.7,1023.2" fill="url(#shardGrad3)" opacity="0.35" />
  <polygon points="637.7,920.4 355.5,1176.4 233.5,912.5 367.0,519.1" fill="url(#shardGrad4)" opacity="0.57" />
  <polygon points="1260.3,930.0 1127.2,1037.0 966.4,921.5 1103.1,852.5" fill="url(#shardGrad2)" opacity="0.4" filter="url(#blurSmall)"/>
  <polygon points="1276.6,982.9 1188.1,1321.7 939.3,1169.7 747.6,1022.4 881.4,806.5 1126.6,915.0" fill="url(#shardGrad5)" opacity="0.53" />
  <polygon points="1759.4,675.9 1584.6,947.8 1325.6,665.5 1621.6,400.5" fill="url(#shardGrad2)" opacity="0.44" />
  <polygon points="1705.4,38.6 1636.6,86.4 1561.6,30.0 1644.7,-17.8" fill="url(#shardGrad4)" opacity="0.29" filter="url(#blurSmall)"/>
  <polygon points="1047.7,937.0 1014.9,1003.1 936.1,951.4 860.7,859.8 1025.9,831.9" fill="url(#shardGrad3)" opacity="0.42" />
  <polygon points="899.7,417.2 813.1,476.3 815.5,343.6" fill="url(#shardGrad1)" opacity="0.38" />
  <polygon points="827.9,857.9 675.6,1003.4 725.2,791.2" fill="url(#shardGrad4)" opacity="0.51" />
  <polygon points="887.8,779.4 744.6,866.7 693.2,556.3" fill="url(#shardGrad5)" opacity="0.67" />
  <polygon points="1995.9,145.6 1760.7,213.6 1673.4,112.1 1783.0,48.4" fill="url(#shardGrad1)" opacity="0.48" filter="url(#blurSmall)"/>
  <polygon points="981.8,685.8 908.5,950.4 630.6,853.6 605.5,601.1 884.0,482.4" fill="url(#shardGrad5)" opacity="0.21" filter="url(#blurSmall)"/>
  <polygon points="847.5,672.1 751.4,713.1 664.9,640.8 762.0,611.8" fill="url(#shardGrad5)" opacity="0.45" filter="url(#blurSmall)"/>
  <polygon points="2091.1,424.4 1832.0,598.5 1649.2,594.7 1382.0,446.2 1628.4,195.3 1863.4,242.6" fill="url(#shardGrad4)" opacity="0.21" filter="url(#blurSmall)"/>
  <polygon points="1076.3,1080.4 1053.6,1125.1 1010.5,1109.1 1011.6,1061.2 1053.6,1052.6" fill="url(#shardGrad5)" opacity="0.24" />
  <polygon points="974.7,410.7 848.0,570.6 611.0,399.0 818.2,336.7" fill="url(#shardGrad5)" opacity="0.46" filter="url(#blurSmall)"/>
  <polygon points="1013.6,948.2 947.6,994.8 951.3,928.6" fill="url(#shardGrad5)" opacity="0.69" filter="url(#blurSmall)"/>
  <polygon points="1546.1,546.9 1417.5,662.2 1412.4,472.6" fill="url(#shardGrad5)" opacity="0.55" />
  <polygon points="2069.9,552.0 1895.1,633.1 1753.5,728.3 1789.5,578.5 1794.7,451.1 1900.6,484.5" fill="url(#shardGrad3)" opacity="0.34" filter="url(#blurSmall)"/>
  <polygon points="839.0,320.2 727.2,391.1 693.5,222.5" fill="url(#shardGrad4)" opacity="0.57" />
  <polygon points="1893.5,227.4 1514.3,424.3 1519.9,160.7" fill="url(#shardGrad1)" opacity="0.55" />
  <polygon points="1762.0,933.9 1622.4,1029.6 1446.4,957.5 1635.1,780.6" fill="url(#shardGrad3)" opacity="0.69" />
  <polygon points="1387.1,508.2 1326.9,553.4 1235.1,660.4 1107.1,511.6 1259.5,449.8 1405.3,368.2" fill="url(#shardGrad1)" opacity="0.63" filter="url(#blurSmall)"/>
  <polygon points="602.8,570.3 604.5,698.6 505.3,633.7 431.9,556.3 497.0,481.7 600.4,478.6" fill="url(#shardGrad1)" opacity="0.47" />
  <polygon points="1888.3,879.1 1740.3,959.9 1505.7,987.8 1599.3,741.6 1811.1,643.9" fill="url(#shardGrad1)" opacity="0.56" />
  <polygon points="2031.2,754.4 1795.6,945.1 1657.3,815.1 1812.6,564.5" fill="url(#shardGrad1)" opacity="0.56" />
  <polygon points="1601.9,368.7 1317.8,544.3 1020.0,470.9 1026.3,184.3 1335.7,134.1" fill="url(#shardGrad5)" opacity="0.32" filter="url(#blurSmall)"/>
  <polygon points="1731.7,300.0 1681.9,351.5 1614.6,349.9 1635.1,267.5 1690.6,253.8" fill="url(#shardGrad3)" opacity="0.34" />
  <polygon points="1434.9,484.2 1332.9,618.0 1167.9,542.6 1188.0,373.9 1330.3,288.2" fill="url(#shardGrad5)" opacity="0.22" />
  <polygon points="1805.4,56.6 1694.0,182.7 1713.0,-57.0" fill="url(#shardGrad2)" opacity="0.57" />
  <polygon points="856.8,523.1 673.2,613.2 522.0,616.4 475.1,433.0 689.4,397.4" fill="url(#shardGrad4)" opacity="0.31" filter="url(#blurSmall)"/>
  <polygon points="855.4,887.9 573.7,1040.7 544.6,692.9" fill="url(#shardGrad5)" opacity="0.47" />
  <polygon points="592.7,703.2 439.6,872.9 323.2,699.2 464.2,657.7" fill="url(#shardGrad5)" opacity="0.51" />
  <polygon points="111.1,490.4 97.5,532.2 54.5,505.8 59.4,470.8 101.5,458.7" fill="url(#shardGrad2)" opacity="0.47" />
  <polygon points="960.7,623.0 801.9,745.6 543.6,731.4 584.7,390.0 840.9,486.8" fill="url(#shardGrad1)" opacity="0.28" />
  <polygon points="700.7,797.2 685.0,842.5 629.2,814.7 623.2,756.6 679.1,734.8" fill="url(#shardGrad2)" opacity="0.63" />
  <polygon points="800.2,43.5 717.6,102.5 669.6,83.6 641.9,8.1 717.3,2.4" fill="url(#shardGrad1)" opacity="0.6" />
  <polygon points="650.5,362.2 519.0,495.1 347.7,481.8 431.4,336.5 520.2,322.4" fill="url(#shardGrad3)" opacity="0.49" />
  <polygon points="537.7,996.9 291.7,1153.8 143.8,989.7 308.8,840.8" fill="url(#shardGrad2)" opacity="0.7" />
  <polygon points="1515.2,54.9 1374.4,115.8 1373.6,21.8" fill="url(#shardGrad1)" opacity="0.34" />
  <polygon points="1245.3,388.7 1171.6,432.6 1121.2,430.2 1091.2,379.8 1112.7,329.6 1163.6,348.6" fill="url(#shardGrad2)" opacity="0.5" />
  <polygon points="2059.8,366.1 1978.6,594.2 1791.5,509.9 1643.8,397.2 1853.4,251.1 2053.7,130.1" fill="url(#shardGrad4)" opacity="0.49" />
  <polygon points="1571.0,848.3 1115.4,1009.5 1208.2,654.2" fill="url(#shardGrad1)" opacity="0.57" filter="url(#blurSmall)"/>
  <polygon points="125.7,501.4 52.9,616.4 -39.3,504.5 56.9,454.0" fill="url(#shardGrad2)" opacity="0.34" filter="url(#blurSmall)"/>
  <polygon points="1189.4,593.0 1063.5,835.7 823.4,771.1 712.8,639.3 847.6,446.3 1040.5,510.5" fill="url(#shardGrad4)" opacity="0.5" />
  <polygon points="1170.4,-21.0 875.6,334.9 543.9,195.0 657.7,-143.6 893.2,-222.0" fill="url(#shardGrad5)" opacity="0.37" />
  <polygon points="928.8,388.4 640.7,736.7 661.7,253.2" fill="url(#shardGrad5)" opacity="0.28" />
  <polygon points="880.9,290.7 793.4,420.7 682.2,445.2 638.8,286.0 704.3,185.5 792.7,215.8" fill="url(#shardGrad5)" opacity="0.69" filter="url(#blurSmall)"/>
  <polygon points="206.2,672.6 38.3,800.0 -149.3,683.9 58.6,506.6" fill="url(#shardGrad4)" opacity="0.45" filter="url(#blurSmall)"/>
  <polygon points="805.6,231.0 683.5,354.2 496.6,346.0 481.6,135.7 684.0,52.1" fill="url(#shardGrad3)" opacity="0.33" />
  <polygon points="1858.0,606.0 1761.0,875.4 1469.1,711.6 1389.7,515.4 1722.9,461.5" fill="url(#shardGrad4)" opacity="0.58" filter="url(#blurSmall)"/>
  <polygon points="1498.8,672.4 1412.2,706.2 1336.3,693.1 1332.9,609.1 1450.3,546.3" fill="url(#shardGrad5)" opacity="0.23" />
  <polygon points="1961.8,322.4 1778.3,527.8 1522.5,470.3 1499.0,285.4 1572.9,65.5 1837.1,-3.8" fill="url(#shardGrad4)" opacity="0.63" />
  <polygon points="649.2,592.7 501.2,836.0 351.9,774.6 50.9,601.9 184.1,352.7 518.0,477.3" fill="url(#shardGrad3)" opacity="0.26" />
  <polygon points="1595.9,199.6 1403.9,260.0 1342.6,45.3" fill="url(#shardGrad3)" opacity="0.49" />
  <polygon points="694.8,964.8 498.3,1030.0 324.3,906.0 497.9,863.8" fill="url(#shardGrad2)" opacity="0.64" />
  <polygon points="1540.5,825.1 1447.4,864.8 1437.0,756.5" fill="url(#shardGrad4)" opacity="0.58" />
  <polygon points="1596.2,929.8 1450.3,1016.0 1413.9,859.2" fill="url(#shardGrad2)" opacity="0.5" />
  <polygon points="683.4,753.1 418.0,1093.7 236.4,759.9 411.2,585.3" fill="url(#shardGrad2)" opacity="0.21" filter="url(#blurSmall)"/>
  <polygon points="914.0,197.6 465.9,343.3 448.7,47.0" fill="url(#shardGrad4)" opacity="0.69" />
  <polygon points="1373.7,812.3 1176.2,942.1 938.4,976.9 1005.9,691.7 1220.4,621.4" fill="url(#shardGrad3)" opacity="0.4" filter="url(#blurSmall)"/>
  <polygon points="505.6,380.8 477.9,502.2 348.7,470.2 300.9,408.5 338.2,306.8 433.4,335.7" fill="url(#shardGrad1)" opacity="0.53" filter="url(#blurSmall)"/>
  <polygon points="320.1,568.1 255.6,599.8 266.9,551.2" fill="url(#shardGrad4)" opacity="0.63" filter="url(#blurSmall)"/>
  <polygon points="1216.5,574.2 1107.3,617.2 1115.0,522.6" fill="url(#shardGrad2)" opacity="0.29" />
  <polygon points="518.6,206.2 365.0,314.2 212.7,415.5 228.4,233.5 225.8,75.3 448.8,68.4" fill="url(#shardGrad4)" opacity="0.35" />
  <polygon points="1102.6,753.6 1049.1,818.0 924.5,851.1 937.9,690.1 1072.1,587.9" fill="url(#shardGrad3)" opacity="0.59" />
  <polygon points="1726.3,353.7 1281.3,667.2 1330.2,120.2" fill="url(#shardGrad4)" opacity="0.22" />
  <polygon points="1750.8,333.8 1732.6,350.7 1701.4,362.8 1680.7,322.2 1708.9,304.2 1748.4,281.7" fill="url(#shardGrad1)" opacity="0.21" />
  <polygon points="1067.2,309.4 917.2,404.6 942.5,215.6" fill="url(#shardGrad3)" opacity="0.38" />
  <polygon points="1671.2,596.4 1387.3,705.1 1194.3,544.1 1445.4,314.4" fill="url(#shardGrad4)" opacity="0.25" filter="url(#blurSmall)"/>
  <polygon points="1530.8,574.4 1423.9,634.6 1446.3,515.6" fill="url(#shardGrad3)" opacity="0.47" />
  <polygon points="191.8,505.0 196.4,605.2 63.7,548.7 52.9,427.7 167.4,435.4" fill="url(#shardGrad2)" opacity="0.27" />
  <polygon points="1275.9,746.1 1176.9,773.0 1169.8,676.7" fill="url(#shardGrad1)" opacity="0.38" />
  <polygon points="917.0,522.3 628.2,846.0 437.8,492.7 612.3,123.5" fill="url(#shardGrad3)" opacity="0.29" />
  <polygon points="1259.2,773.6 913.4,879.5 903.7,669.4" fill="url(#shardGrad3)" opacity="0.62" filter="url(#blurSmall)"/>
  <polygon points="2083.1,963.5 1922.5,1208.1 1794.8,1112.1 1555.1,1037.1 1698.5,828.4 1940.6,791.2" fill="url(#shardGrad1)" opacity="0.34" filter="url(#blurSmall)"/>
  <polygon points="450.8,493.9 307.4,551.8 278.1,385.5" fill="url(#shardGrad4)" opacity="0.59" />
  <polygon points="712.2,139.3 523.2,204.9 514.9,-14.5" fill="url(#shardGrad1)" opacity="0.41" />
  <polygon points="1762.5,842.1 1726.5,961.1 1583.4,850.6 1705.0,785.2" fill="url(#shardGrad4)" opacity="0.32" />
  <polygon points="1466.2,837.1 1126.4,978.6 1056.2,632.8" fill="url(#shardGrad2)" opacity="0.25" filter="url(#blurSmall)"/>
  <polygon points="949.1,352.7 820.0,584.2 613.9,426.2 521.5,172.2 743.4,191.8" fill="url(#shardGrad2)" opacity="0.39" />
  <polygon points="428.7,503.0 380.4,533.8 330.9,521.6 321.4,469.6 399.1,437.8" fill="url(#shardGrad3)" opacity="0.61" filter="url(#blurSmall)"/>
  <polygon points="1082.5,1079.7 675.8,1221.8 658.1,863.9" fill="url(#shardGrad2)" opacity="0.21" filter="url(#blurSmall)"/>
  <polygon points="1431.5,737.6 1333.0,803.9 1250.3,727.4 1340.3,635.6" fill="url(#shardGrad5)" opacity="0.35" />
  <polygon points="1017.8,-10.3 959.9,148.2 798.3,68.4 824.3,-59.2 985.9,-160.0" fill="url(#shardGrad4)" opacity="0.33" filter="url(#blurSmall)"/>
  <polygon points="1185.5,142.0 907.2,233.2 727.6,178.4 776.0,-1.1 944.8,-64.6" fill="url(#shardGrad4)" opacity="0.64" />
  <polygon points="785.2,731.2 736.5,764.1 708.0,726.0 728.3,660.2" fill="url(#shardGrad1)" opacity="0.34" />
  <polygon points="775.0,495.6 495.3,719.3 367.8,525.6 534.2,397.5" fill="url(#shardGrad4)" opacity="0.21" />
  <polygon points="1854.5,467.9 1895.2,691.4 1674.4,597.1 1481.8,500.3 1578.7,250.0 1866.8,210.1" fill="url(#shardGrad4)" opacity="0.21" />
  <polygon points="912.3,465.0 760.1,771.3 549.3,578.5 487.5,329.7 718.7,379.0" fill="url(#shardGrad4)" opacity="0.26" />
  <polygon points="1716.9,1049.6 1567.3,1138.4 1444.1,1036.8 1604.4,840.0" fill="url(#shardGrad4)" opacity="0.34" />
  <polygon points="346.8,846.3 222.1,879.7 141.7,908.6 81.8,815.4 149.3,727.5 234.7,749.4" fill="url(#shardGrad3)" opacity="0.34" />
  <polygon points="402.0,555.1 315.2,616.4 335.7,486.9" fill="url(#shardGrad4)" opacity="0.59" />
  <polygon points="1068.6,709.7 910.8,835.1 950.3,586.3" fill="url(#shardGrad4)" opacity="0.47" />
  <polygon points="298.4,654.7 -37.4,907.0 -166.6,393.2" fill="url(#shardGrad1)" opacity="0.52" />
  <polygon points="2122.9,112.1 1779.7,279.0 1777.8,-49.7" fill="url(#shardGrad3)" opacity="0.51" filter="url(#blurSmall)"/>
  <polygon points="271.8,417.5 198.8,488.1 159.7,410.0 210.9,358.2" fill="url(#shardGrad1)" opacity="0.46" filter="url(#blurSmall)"/>
  <polygon points="1975.6,537.1 1884.0,631.2 1824.2,534.1 1866.5,428.5" fill="url(#shardGrad5)" opacity="0.58" />
  <polygon points="1988.6,558.7 1564.2,838.4 1581.8,294.8" fill="url(#shardGrad3)" opacity="0.42" />
  <polygon points="1843.0,635.4 1829.4,766.4 1664.2,760.7 1554.2,605.4 1656.3,415.9 1831.4,457.1" fill="url(#shardGrad1)" opacity="0.53" />
  <polygon points="584.4,501.9 460.8,602.4 462.7,368.9" fill="url(#shardGrad5)" opacity="0.27" />
  <polygon points="495.0,96.6 467.8,195.0 333.3,132.3 318.3,5.5 437.1,-37.6" fill="url(#shardGrad4)" opacity="0.45" filter="url(#blurSmall)"/>
  <polygon points="276.2,585.3 -8.2,700.5 43.1,492.2" fill="url(#shardGrad2)" opacity="0.3" />
  <polygon points="439.3,867.6 302.7,966.4 175.0,853.5 281.9,758.7" fill="url(#shardGrad3)" opacity="0.32" filter="url(#blurSmall)"/>
  <polygon points="1843.4,926.9 1806.1,1172.4 1477.7,1274.5 1435.7,946.1 1531.3,733.8 1675.3,802.4" fill="url(#shardGrad5)" opacity="0.43" />
  <polygon points="1314.6,832.4 1305.0,940.4 1192.3,905.9 1159.8,833.0 1140.0,734.9 1274.7,762.0" fill="url(#shardGrad2)" opacity="0.62" />
  <polygon points="1994.8,632.0 1833.3,826.7 1622.2,850.8 1500.9,681.3 1628.1,531.3 1750.6,587.1" fill="url(#shardGrad5)" opacity="0.47" />
  <polygon points="530.8,1006.1 402.0,1079.0 296.0,1094.2 180.6,893.8 480.9,814.9" fill="url(#shardGrad1)" opacity="0.36" filter="url(#blurSmall)"/>
  <polygon points="1455.4,373.7 1421.7,394.6 1391.4,382.1 1388.6,349.8 1427.2,328.0" fill="url(#shardGrad2)" opacity="0.37" />
  <polygon points="2046.9,333.1 1902.6,630.7 1708.3,345.2 1864.4,199.4" fill="url(#shardGrad1)" opacity="0.38" />
  <polygon points="852.3,1041.5 694.2,1147.3 649.1,892.4" fill="url(#shardGrad3)" opacity="0.35" />
  <polygon points="1548.5,786.6 1359.9,976.2 1185.6,799.6 1088.6,595.0 1351.8,498.8" fill="url(#shardGrad2)" opacity="0.43" filter="url(#blurSmall)"/>
  <polygon points="1935.6,642.9 1727.4,809.8 1774.7,530.3" fill="url(#shardGrad3)" opacity="0.29" filter="url(#blurSmall)"/>
  <polygon points="1161.0,209.0 846.5,448.4 882.4,74.9" fill="url(#shardGrad5)" opacity="0.59" filter="url(#blurSmall)"/>
  <polygon points="370.2,498.3 241.0,604.5 279.4,436.2" fill="url(#shardGrad2)" opacity="0.25" />
  <polygon points="2091.0,703.8 1949.2,963.7 1701.9,805.9 1638.4,606.4 1881.8,604.2" fill="url(#shardGrad5)" opacity="0.68" />
  <polygon points="2060.8,483.5 1845.3,581.2 1853.9,370.2" fill="url(#shardGrad2)" opacity="0.42" filter="url(#blurSmall)"/>
  <polygon points="1550.3,169.8 1319.2,361.0 944.3,229.4 1279.6,-216.1" fill="url(#shardGrad5)" opacity="0.26" />
  <polygon points="1961.2,-12.4 1675.9,268.5 1499.7,-17.3 1720.5,-226.7" fill="url(#shardGrad1)" opacity="0.64" filter="url(#blurSmall)"/>
  <polygon points="767.6,894.0 758.7,930.6 723.2,946.4 679.3,907.0 729.9,880.4 762.1,865.1" fill="url(#shardGrad3)" opacity="0.68" />
  <polygon points="1456.2,589.0 1250.2,664.7 1086.7,658.8 916.3,520.7 1068.4,337.1 1208.5,405.4" fill="url(#shardGrad5)" opacity="0.63" filter="url(#blurSmall)"/>
  <polygon points="1549.4,656.1 1439.3,724.4 1443.7,589.9" fill="url(#shardGrad2)" opacity="0.46" filter="url(#blurSmall)"/>
  <polygon points="1120.0,909.5 904.1,1137.7 815.2,881.2 929.2,793.2" fill="url(#shardGrad1)" opacity="0.21" />
  <polygon points="1187.5,188.3 851.7,460.8 908.3,63.5" fill="url(#shardGrad2)" opacity="0.23" />
  <polygon points="239.8,1069.6 109.2,1218.3 -11.1,1256.9 -99.7,1065.8 -65.9,879.7 178.9,910.2" fill="url(#shardGrad5)" opacity="0.23" />
  <polygon points="567.1,169.3 369.0,298.3 224.7,288.7 89.0,191.3 200.0,34.3 368.6,60.5" fill="url(#shardGrad2)" opacity="0.69" filter="url(#blurSmall)"/>
  <polygon points="1075.9,571.8 966.8,666.4 796.4,631.1 840.6,448.0 1012.6,395.5" fill="url(#shardGrad1)" opacity="0.6" filter="url(#blurSmall)"/>
  <polygon points="1155.2,401.1 1003.8,508.1 1006.9,320.4" fill="url(#shardGrad2)" opacity="0.43" />
  <polygon points="1858.4,74.6 1730.4,218.2 1570.1,108.3 1721.0,-12.5" fill="url(#shardGrad4)" opacity="0.5" />
  <path d="M 0,180.0 L 0,111.7 L 40,117.6 L 80,124.2 L 120,131.4 L 160,139.1 L 200,147.3 L 240,155.8 L 280,164.6 L 320,173.6 L 360,182.6 L 400,191.7 L 440,200.6 L 480,209.2 L 520,217.6 L 560,225.5 L 600,232.9 L 640,239.8 L 680,245.9 L 720,251.4 L 760,256.1 L 800,259.9 L 840,262.9 L 880,264.9 L 920,266.1 L 960,266.2 L 1000,265.5 L 1040,263.7 L 1080,261.1 L 1120,257.6 L 1160,253.2 L 1200,248.0 L 1240,242.1 L 1280,235.5 L 1320,228.2 L 1360,220.5 L 1400,212.3 L 1440,203.7 L 1480,194.9 L 1520,185.9 L 1560,176.9 L 1600,167.9 L 1640,159.0 L 1680,150.3 L 1720,142.0 L 1760,134.1 L 1800,126.7 L 1840,119.9 L 1880,113.7 L 1920,108.3 L 1920,1080 L 0,1080 Z" fill="url(#waveGrad)" opacity="0.4" filter="url(#glow)"/>
  <path d="M 0,360.0 L 0,386.6 L 40,373.5 L 80,360.4 L 120,347.2 L 160,334.2 L 200,321.4 L 240,309.0 L 280,297.1 L 320,285.9 L 360,275.4 L 400,265.7 L 440,257.0 L 480,249.4 L 520,242.8 L 560,237.5 L 600,233.3 L 640,230.5 L 680,228.9 L 720,228.7 L 760,229.8 L 800,232.2 L 840,235.9 L 880,240.8 L 920,247.0 L 960,254.2 L 1000,262.6 L 1040,271.9 L 1080,282.1 L 1120,293.1 L 1160,304.8 L 1200,317.0 L 1240,329.6 L 1280,342.6 L 1320,355.7 L 1360,368.9 L 1400,382.0 L 1440,394.9 L 1480,407.4 L 1520,419.4 L 1560,430.9 L 1600,441.6 L 1640,451.5 L 1680,460.5 L 1720,468.5 L 1760,475.4 L 1800,481.1 L 1840,485.6 L 1880,488.8 L 1920,490.7 L 1920,1080 L 0,1080 Z" fill="url(#waveGrad)" opacity="0.4" filter="url(#glow)"/>
  <path d="M 0,540.0 L 0,647.3 L 40,627.7 L 80,605.4 L 120,581.1 L 160,555.6 L 200,529.6 L 240,503.9 L 280,479.3 L 320,456.5 L 360,436.3 L 400,419.3 L 440,405.9 L 480,396.6 L 520,391.7 L 560,391.2 L 600,395.3 L 640,403.8 L 680,416.4 L 720,432.8 L 760,452.4 L 800,474.7 L 840,499.0 L 880,524.6 L 920,550.6 L 960,576.2 L 1000,600.8 L 1040,623.5 L 1080,643.7 L 1120,660.8 L 1160,674.1 L 1200,683.4 L 1240,688.4 L 1280,688.8 L 1320,684.7 L 1360,676.2 L 1400,663.5 L 1440,647.1 L 1480,627.5 L 1520,605.2 L 1560,580.9 L 1600,555.3 L 1640,529.3 L 1680,503.6 L 1720,479.1 L 1760,456.4 L 1800,436.2 L 1840,419.2 L 1880,405.8 L 1920,396.5 L 1920,1080 L 0,1080 Z" fill="url(#waveGrad)" opacity="0.4" filter="url(#glow)"/>
  <path d="M 0,720.0 L 0,698.7 L 40,686.6 L 80,675.0 L 120,663.8 L 160,653.3 L 200,643.6 L 240,634.7 L 280,626.8 L 320,620.0 L 360,614.3 L 400,609.8 L 440,606.6 L 480,604.6 L 520,604.0 L 560,604.7 L 600,606.7 L 640,610.0 L 680,614.6 L 720,620.4 L 760,627.3 L 800,635.2 L 840,644.2 L 880,653.9 L 920,664.5 L 960,675.7 L 1000,687.3 L 1040,699.4 L 1080,711.7 L 1120,724.1 L 1160,736.4 L 1200,748.6 L 1240,760.4 L 1280,771.7 L 1320,782.5 L 1360,792.6 L 1400,801.8 L 1440,810.1 L 1480,817.4 L 1520,823.5 L 1560,828.5 L 1600,832.3 L 1640,834.7 L 1680,835.9 L 1720,835.7 L 1760,834.2 L 1800,831.4 L 1840,827.4 L 1880,822.1 L 1920,815.6 L 1920,1080 L 0,1080 Z" fill="url(#waveGrad)" opacity="0.4" filter="url(#glow)"/>
  <path d="M 0,900.0 L 0,727.8 L 40,718.0 L 80,714.0 L 120,715.9 L 160,723.5 L 200,736.8 L 240,755.2 L 280,778.1 L 320,805.0 L 360,834.8 L 400,866.7 L 440,899.6 L 480,932.6 L 520,964.5 L 560,994.4 L 600,1021.3 L 640,1044.3 L 680,1062.9 L 720,1076.2 L 760,1084.0 L 800,1086.0 L 840,1082.1 L 880,1072.5 L 920,1057.4 L 960,1037.3 L 1000,1012.9 L 1040,984.9 L 1080,954.3 L 1120,921.9 L 1160,888.9 L 1200,856.2 L 1240,824.8 L 1280,795.9 L 1320,770.2 L 1360,748.7 L 1400,731.9 L 1440,720.4 L 1480,714.6 L 1520,714.7 L 1560,720.6 L 1600,732.2 L 1640,749.1 L 1680,770.7 L 1720,796.5 L 1760,825.5 L 1800,856.8 L 1840,889.6 L 1880,922.6 L 1920,954.9 L 1920,1080 L 0,1080 Z" fill="url(#waveGrad)" opacity="0.4" filter="url(#glow)"/>
  <g stroke="#ffffff" stroke-opacity="0.15" stroke-width="1">
    <line x1="829.9" y1="61.5" x2="1011.1" y2="364.0"/>
    <line x1="504.9" y1="550.7" x2="34.1" y2="709.3"/>
    <line x1="1393.6" y1="391.5" x2="1293.7" y2="119.3"/>
    <line x1="659.3" y1="819.5" x2="224.2" y2="1100.1"/>
    <line x1="1678.6" y1="521.7" x2="1481.5" y2="665.0"/>
    <line x1="425.5" y1="379.2" x2="127.0" y2="275.3"/>
    <line x1="532.2" y1="486.2" x2="68.8" y2="181.0"/>
    <line x1="1015.9" y1="1002.4" x2="705.5" y2="1013.7"/>
    <line x1="397.3" y1="103.8" x2="319.9" y2="-335.0"/>
    <line x1="1569.7" y1="553.7" x2="1357.2" y2="699.9"/>
    <line x1="575.1" y1="1066.3" x2="593.8" y2="1234.7"/>
    <line x1="743.1" y1="514.3" x2="359.2" y2="234.0"/>
    <line x1="186.4" y1="733.5" x2="7.1" y2="932.5"/>
    <line x1="190.0" y1="1005.8" x2="-44.3" y2="670.7"/>
    <line x1="1727.1" y1="637.5" x2="1521.6" y2="960.2"/>
    <line x1="1114.5" y1="950.8" x2="1231.9" y2="1093.1"/>
    <line x1="514.1" y1="174.1" x2="878.4" y2="-81.2"/>
    <line x1="1595.5" y1="244.0" x2="1637.7" y2="258.8"/>
    <line x1="1216.3" y1="642.2" x2="863.9" y2="634.2"/>
    <line x1="500.7" y1="584.0" x2="63.5" y2="509.5"/>
    <line x1="82.6" y1="837.1" x2="460.8" y2="974.4"/>
    <line x1="1193.4" y1="737.6" x2="1259.5" y2="1044.4"/>
    <line x1="433.5" y1="534.6" x2="680.9" y2="655.7"/>
    <line x1="412.1" y1="796.7" x2="622.3" y2="1183.7"/>
    <line x1="642.2" y1="519.3" x2="577.1" y2="857.9"/>
    <line x1="641.3" y1="888.2" x2="438.9" y2="606.8"/>
    <line x1="1837.0" y1="507.6" x2="2004.8" y2="231.0"/>
    <line x1="470.9" y1="927.5" x2="233.4" y2="535.9"/>
    <line x1="1722.6" y1="202.1" x2="1394.7" y2="-145.6"/>
    <line x1="808.4" y1="35.9" x2="828.3" y2="188.9"/>
    <line x1="1387.8" y1="308.6" x2="1331.3" y2="290.2"/>
    <line x1="1036.0" y1="217.3" x2="935.6" y2="344.3"/>
    <line x1="947.3" y1="899.6" x2="1289.9" y2="639.1"/>
    <line x1="267.9" y1="580.9" x2="-32.7" y2="664.1"/>
    <line x1="1816.4" y1="376.7" x2="2216.9" y2="-45.5"/>
    <line x1="1487.5" y1="1048.8" x2="1288.1" y2="767.9"/>
    <line x1="898.8" y1="937.6" x2="602.6" y2="1197.1"/>
    <line x1="103.9" y1="200.7" x2="-138.7" y2="362.3"/>
    <line x1="1787.1" y1="129.0" x2="2145.9" y2="236.9"/>
    <line x1="757.2" y1="367.3" x2="1031.1" y2="510.8"/>
    <line x1="985.2" y1="45.2" x2="1243.1" y2="-328.6"/>
    <line x1="1604.5" y1="148.8" x2="1399.3" y2="438.8"/>
    <line x1="1490.3" y1="736.2" x2="1439.0" y2="806.7"/>
    <line x1="156.2" y1="709.5" x2="202.8" y2="742.4"/>
    <line x1="1319.5" y1="878.3" x2="1513.0" y2="967.3"/>
    <line x1="1695.0" y1="516.5" x2="1681.6" y2="526.7"/>
    <line x1="1249.4" y1="495.8" x2="1533.9" y2="556.2"/>
    <line x1="1389.9" y1="656.3" x2="1635.0" y2="357.8"/>
    <line x1="40.8" y1="679.4" x2="-356.3" y2="353.2"/>
    <line x1="374.0" y1="93.7" x2="628.2" y2="218.7"/>
    <line x1="275.6" y1="520.4" x2="376.3" y2="738.0"/>
    <line x1="900.5" y1="595.0" x2="941.4" y2="252.5"/>
    <line x1="1473.7" y1="107.8" x2="1778.1" y2="-224.6"/>
    <line x1="1704.5" y1="64.0" x2="1799.9" y2="179.5"/>
    <line x1="1906.8" y1="270.6" x2="1743.6" y2="239.2"/>
    <line x1="147.9" y1="523.2" x2="516.1" y2="665.2"/>
    <line x1="1087.0" y1="344.6" x2="912.8" y2="442.8"/>
    <line x1="508.1" y1="275.7" x2="108.9" y2="-205.8"/>
    <line x1="917.5" y1="384.9" x2="1331.2" y2="445.6"/>
    <line x1="750.8" y1="948.0" x2="844.1" y2="1242.7"/>
    <line x1="1732.7" y1="132.4" x2="2108.7" y2="-259.2"/>
    <line x1="252.5" y1="728.2" x2="730.0" y2="937.3"/>
    <line x1="1567.8" y1="783.2" x2="2008.6" y2="1169.9"/>
    <line x1="1615.2" y1="452.8" x2="1597.0" y2="244.7"/>
    <line x1="19.4" y1="615.3" x2="-239.3" y2="389.1"/>
    <line x1="1673.6" y1="496.8" x2="1842.3" y2="762.4"/>
    <line x1="557.6" y1="204.6" x2="540.8" y2="-235.5"/>
    <line x1="1896.6" y1="402.7" x2="2143.1" y2="593.9"/>
    <line x1="513.0" y1="404.7" x2="424.0" y2="13.0"/>
    <line x1="767.3" y1="454.4" x2="1063.4" y2="213.7"/>
    <line x1="1772.4" y1="963.5" x2="1808.5" y2="957.4"/>
    <line x1="758.5" y1="234.0" x2="1245.0" y2="10.3"/>
    <line x1="433.9" y1="181.3" x2="130.8" y2="288.6"/>
    <line x1="1719.3" y1="266.7" x2="1416.4" y2="372.5"/>
    <line x1="1758.7" y1="295.9" x2="2072.4" y2="468.8"/>
    <line x1="1208.2" y1="1057.7" x2="1198.2" y2="1042.4"/>
    <line x1="853.2" y1="378.8" x2="1292.4" y2="-12.8"/>
    <line x1="1719.8" y1="662.6" x2="1354.6" y2="558.5"/>
    <line x1="1818.2" y1="1044.7" x2="1961.7" y2="628.7"/>
    <line x1="420.4" y1="341.3" x2="455.8" y2="278.1"/>
    <line x1="103.1" y1="519.5" x2="15.3" y2="751.7"/>
    <line x1="270.3" y1="581.8" x2="-215.8" y2="1007.0"/>
    <line x1="516.7" y1="954.2" x2="533.8" y2="698.6"/>
    <line x1="1242.6" y1="68.6" x2="1416.4" y2="181.3"/>
    <line x1="906.0" y1="603.3" x2="804.9" y2="865.2"/>
    <line x1="1519.8" y1="742.6" x2="1361.6" y2="755.4"/>
    <line x1="1126.5" y1="936.3" x2="1078.9" y2="789.5"/>
    <line x1="1460.4" y1="548.3" x2="1593.7" y2="715.9"/>
    <line x1="1581.4" y1="1057.2" x2="1121.4" y2="823.4"/>
    <line x1="1002.3" y1="429.3" x2="781.8" y2="61.3"/>
    <line x1="1907.8" y1="8.6" x2="1603.7" y2="164.1"/>
    <line x1="656.7" y1="192.6" x2="527.3" y2="421.1"/>
    <line x1="1239.0" y1="192.6" x2="1725.9" y2="156.6"/>
    <line x1="635.2" y1="872.8" x2="1061.3" y2="1289.2"/>
    <line x1="1136.1" y1="382.6" x2="828.4" y2="526.1"/>
    <line x1="1794.6" y1="733.3" x2="1469.4" y2="662.7"/>
    <line x1="548.7" y1="703.4" x2="786.5" y2="966.3"/>
    <line x1="1844.6" y1="778.1" x2="2190.9" y2="774.7"/>
    <line x1="1176.1" y1="1056.1" x2="1137.3" y2="1331.4"/>
    <line x1="1031.0" y1="542.7" x2="1418.7" y2="782.2"/>
    <line x1="1043.4" y1="17.6" x2="1523.4" y2="-184.5"/>
    <line x1="1235.4" y1="49.1" x2="1665.1" y2="80.6"/>
    <line x1="1410.6" y1="148.2" x2="1634.9" y2="275.1"/>
    <line x1="1870.0" y1="581.3" x2="1638.8" y2="456.2"/>
    <line x1="877.8" y1="411.7" x2="939.6" y2="673.2"/>
    <line x1="1779.8" y1="490.0" x2="1484.8" y2="977.4"/>
    <line x1="1120.9" y1="901.1" x2="1377.5" y2="1376.7"/>
    <line x1="1549.3" y1="585.1" x2="1171.8" y2="178.0"/>
    <line x1="1594.6" y1="912.4" x2="1383.6" y2="1385.6"/>
    <line x1="1105.2" y1="713.9" x2="743.8" y2="1081.8"/>
    <line x1="1541.9" y1="308.8" x2="1260.5" y2="657.5"/>
    <line x1="1365.7" y1="637.1" x2="1099.8" y2="392.6"/>
    <line x1="1876.8" y1="180.4" x2="2320.9" y2="643.5"/>
    <line x1="1155.3" y1="193.3" x2="1119.4" y2="-70.7"/>
    <line x1="121.9" y1="304.1" x2="491.9" y2="17.5"/>
    <line x1="1166.7" y1="349.2" x2="988.1" y2="187.9"/>
    <line x1="1446.2" y1="473.5" x2="1814.7" y2="672.8"/>
    <line x1="376.9" y1="308.8" x2="-40.4" y2="399.0"/>
    <line x1="359.7" y1="825.2" x2="122.5" y2="455.6"/>
    <line x1="1903.2" y1="561.6" x2="1911.4" y2="630.4"/>
    <line x1="1723.0" y1="204.3" x2="1289.3" y2="-163.4"/>
    <line x1="1052.2" y1="327.0" x2="553.5" y2="579.9"/>
    <line x1="804.7" y1="941.0" x2="892.5" y2="1438.5"/>
    <line x1="1840.4" y1="676.9" x2="2099.2" y2="311.6"/>
    <line x1="292.9" y1="366.8" x2="503.7" y2="10.1"/>
    <line x1="964.6" y1="103.1" x2="1050.6" y2="-182.6"/>
    <line x1="1170.7" y1="867.6" x2="1488.8" y2="1059.8"/>
    <line x1="780.1" y1="100.7" x2="1271.1" y2="-86.7"/>
    <line x1="970.9" y1="573.9" x2="953.4" y2="899.0"/>
    <line x1="1367.2" y1="571.2" x2="1323.3" y2="542.0"/>
    <line x1="862.9" y1="853.1" x2="1254.6" y2="452.6"/>
    <line x1="63.0" y1="163.1" x2="69.3" y2="-95.2"/>
    <line x1="1633.2" y1="128.8" x2="2029.7" y2="604.6"/>
    <line x1="264.4" y1="95.4" x2="-89.6" y2="156.8"/>
    <line x1="292.1" y1="26.7" x2="642.6" y2="-448.5"/>
    <line x1="607.5" y1="281.4" x2="1067.1" y2="208.4"/>
    <line x1="740.6" y1="986.6" x2="313.6" y2="697.4"/>
    <line x1="1128.2" y1="810.9" x2="660.9" y2="472.9"/>
    <line x1="53.8" y1="1024.2" x2="439.8" y2="549.9"/>
    <line x1="1100.2" y1="114.2" x2="1511.4" y2="238.6"/>
    <line x1="1536.4" y1="216.9" x2="1466.2" y2="293.8"/>
    <line x1="46.9" y1="874.6" x2="53.7" y2="791.7"/>
    <line x1="988.1" y1="464.5" x2="910.0" y2="920.9"/>
    <line x1="498.0" y1="802.6" x2="131.0" y2="1097.1"/>
    <line x1="36.6" y1="1015.6" x2="-310.7" y2="1303.7"/>
    <line x1="1192.3" y1="140.9" x2="949.5" y2="588.8"/>
    <line x1="1459.4" y1="742.0" x2="1929.5" y2="850.8"/>
    <line x1="195.5" y1="39.8" x2="526.3" y2="-266.5"/>
    <line x1="753.2" y1="902.6" x2="450.4" y2="1132.2"/>
    <line x1="381.9" y1="514.9" x2="879.4" y2="474.2"/>
    <line x1="1605.1" y1="567.5" x2="2050.3" y2="474.9"/>
    <line x1="1807.5" y1="253.4" x2="1662.5" y2="582.3"/>
    <line x1="1644.9" y1="954.8" x2="1283.9" y2="825.2"/>
    <line x1="357.9" y1="241.2" x2="-93.2" y2="41.6"/>
    <line x1="70.8" y1="555.8" x2="402.4" y2="138.3"/>
    <line x1="868.9" y1="697.5" x2="755.2" y2="1096.3"/>
    <line x1="835.2" y1="510.4" x2="700.2" y2="534.5"/>
    <line x1="1143.3" y1="796.4" x2="1213.9" y2="1182.3"/>
    <line x1="1541.6" y1="462.7" x2="1423.7" y2="605.9"/>
    <line x1="476.9" y1="912.4" x2="317.1" y2="418.0"/>
    <line x1="1324.2" y1="319.0" x2="1794.5" y2="756.1"/>
    <line x1="685.7" y1="364.8" x2="588.2" y2="-38.8"/>
    <line x1="1872.5" y1="514.8" x2="1753.6" y2="543.9"/>
    <line x1="1180.3" y1="343.6" x2="1298.0" y2="574.8"/>
    <line x1="857.9" y1="850.2" x2="626.6" y2="751.8"/>
    <line x1="202.0" y1="388.0" x2="352.9" y2="163.3"/>
    <line x1="1418.8" y1="667.1" x2="1079.9" y2="923.3"/>
    <line x1="1011.2" y1="324.4" x2="963.4" y2="405.3"/>
    <line x1="1582.4" y1="766.6" x2="1292.3" y2="1223.8"/>
    <line x1="82.2" y1="937.3" x2="486.4" y2="862.4"/>
    <line x1="985.6" y1="617.2" x2="1063.1" y2="154.7"/>
    <line x1="433.3" y1="689.3" x2="288.9" y2="545.8"/>
    <line x1="546.9" y1="568.1" x2="678.3" y2="766.3"/>
    <line x1="157.8" y1="860.6" x2="476.7" y2="1305.6"/>
    <line x1="1435.8" y1="619.4" x2="1562.0" y2="976.2"/>
    <line x1="1453.8" y1="543.9" x2="1153.4" y2="568.7"/>
    <line x1="968.1" y1="851.1" x2="840.5" y2="988.1"/>
    <line x1="698.8" y1="356.4" x2="1011.6" y2="845.1"/>
    <line x1="1385.3" y1="68.8" x2="1763.1" y2="161.6"/>
    <line x1="380.9" y1="626.7" x2="464.7" y2="498.1"/>
    <line x1="762.5" y1="304.9" x2="548.8" y2="486.5"/>
    <line x1="710.3" y1="301.5" x2="386.5" y2="111.9"/>
    <line x1="267.6" y1="20.1" x2="13.1" y2="-388.7"/>
    <line x1="100.7" y1="391.8" x2="568.2" y2="330.4"/>
    <line x1="1056.5" y1="623.9" x2="787.9" y2="870.9"/>
    <line x1="1255.0" y1="1060.7" x2="1574.6" y2="1155.4"/>
    <line x1="675.8" y1="680.3" x2="778.6" y2="992.9"/>
    <line x1="1311.0" y1="394.0" x2="1629.7" y2="-7.0"/>
    <line x1="880.5" y1="361.2" x2="943.2" y2="-124.5"/>
    <line x1="68.8" y1="21.2" x2="492.8" y2="-71.4"/>
    <line x1="319.0" y1="13.0" x2="-174.0" y2="-101.4"/>
    <line x1="436.7" y1="1073.5" x2="681.7" y2="1472.4"/>
    <line x1="1015.2" y1="64.5" x2="1072.9" y2="-36.8"/>
    <line x1="483.3" y1="38.1" x2="226.8" y2="-210.5"/>
    <line x1="319.8" y1="111.3" x2="-139.3" y2="-260.9"/>
    <line x1="1384.7" y1="931.0" x2="901.9" y2="1299.2"/>
    <line x1="510.3" y1="940.7" x2="728.9" y2="863.4"/>
    <line x1="1723.0" y1="506.4" x2="1340.6" y2="161.8"/>
    <line x1="710.6" y1="34.6" x2="916.5" y2="26.0"/>
    <line x1="595.7" y1="324.1" x2="259.4" y2="603.7"/>
  </g>
</svg>