<?xml version="1.0" encoding="UTF-8"?>
<svg width="1920" height="1080" viewBox="0 0 1920 1080" xmlns="http://www.w3.org/2000/svg" preserveAspectRatio="xMidYMid slice">
  <defs>
    <linearGradient id="bgGrad" x1="0%" y1="100%" x2="100%" y2="0%">
      <stop offset="0%" stop-color="#0d091f"/>
      <stop offset="50%" stop-color="#312a3f"/>
      <stop offset="100%" stop-color="#1f001f"/>
    </linearGradient>
    <linearGradient id="shardGrad1" x1="0%" y1="0%" x2="100%" y2="100%">
      <stop offset="0%" stop-color="#833ab4" stop-opacity="0.8"/>
      <stop offset="100%" stop-color="#fd1d1d" stop-opacity="0.4"/>
    </linearGradient>
    <linearGradient id="shardGrad2" x1="0%" y1="0%" x2="100%" y2="100%">
      <stop offset="0%" stop-color="#3a1c71" stop-opacity="0.8"/>
      <stop offset="100%" stop-color="#d76d77" stop-opacity="0.4"/>
    </linearGradient>
    <linearGradient id="shardGrad3" x1="0%" y1="0%" x2="100%" y2="100%">
      <stop offset="0%" stop-color="#11998e" stop-opacity="0.8"/>
      <stop offset="100%" stop-color="#38ef7d" stop-opacity="0.4"/>
    </linearGradient>
    <linearGradient id="shardGrad4" x1="0%" y1="0%" x2="100%" y2="100%">
      <stop offset="0%" stop-color="#3a7bd5" stop-opacity="0.8"/>
      <stop offset="100%" stop-color="#00d2ff" stop-opacity="0.4"/>
    </linearGradient>
    <linearGradient id="shardGrad5" x1="0%" y1="0%" x2="100%" y2="100%">
      <stop offset="0%" stop-color="#ff8008" stop-opacity="0.8"/>
      <stop offset="100%" stop-color="#ffc837" stop-opacity="0.4"/>
    </linearGradient>
    <radialGradient id="waveGrad" cx="40%" cy="60%" r="60%">
      <stop offset="0%" stop-color="#00fce1" stop-opacity="0.6"/>
      <stop offset="100%" stop-color="#ff00ff" stop-opacity="0.05"/>
    </radialGradient>
    <filter id="glow" x="-60%" y="-60%" width="220%" height="220%">
      <feGaussianBlur in="SourceGraphic" stdDeviation="18" result="blur"/>
      <feMerge>
        <feMergeNode in="blur"/>
        <feMergeNode in="SourceGraphic"/>
      </feMerge>
    </filter>
    <filter id="dof" x="-20%" y="-20%" width="140%" height="140%">
      <feGaussianBlur in="SourceAlpha" stdDeviation="4" result="b"/>
      <feMerge>
        <feMergeNode in="b"/>
        <feMergeNode in="SourceGraphic"/>
      </feMerge>
    </filter>
  </defs>
  <rect width="100%" height="100%" fill="url(#bgGrad)"/>
  <polygon points="922.8,483.9 541.2,764.5 600.3,424.9" fill="url(#shardGrad1)" opacity="0.3" filter="url(#dof)"/>
  <polygon points="1110.4,268.2 1076.8,459.1 936.3,269.6 980.9,88.3" fill="url(#shardGrad5)" opacity="0.3" filter="url(#dof)"/>
  <polygon points="915.6,156.4 652.4,586.7 189.6,495.6 416.0,125.6 559.5,-104.9" fill="url(#shardGrad1)" opacity="0.3" filter="url(#dof)"/>
  <polygon points="624.3,608.6 366.5,939.3 103.1,550.6 367.1,355.6" fill="url(#shardGrad1)" opacity="0.3" filter="url(#dof)"/>
  <polygon points="1154.7,824.0 1036.8,938.1 925.6,786.2 1059.8,726.1" fill="url(#shardGrad5)" opacity="0.3" filter="url(#dof)"/>
  <polygon points="1084.5,754.0 806.9,1052.6 738.4,424.2" fill="url(#shardGrad1)" opacity="0.3" filter="url(#dof)"/>
  <polygon points="1629.0,747.0 1293.8,1168.8 1008.7,788.3 1252.7,604.5" fill="url(#shardGrad3)" opacity="0.3" filter="url(#dof)"/>
  <polygon points="1360.4,332.0 1233.5,418.8 1083.6,335.5 1247.4,179.5" fill="url(#shardGrad4)" opacity="0.3" filter="url(#dof)"/>
  <polygon points="1073.8,547.2 834.9,780.2 726.7,546.2 859.1,447.5" fill="url(#shardGrad1)" opacity="0.3" filter="url(#dof)"/>
  <polygon points="706.1,647.7 517.8,711.9 477.0,525.2" fill="url(#shardGrad3)" opacity="0.3" filter="url(#dof)"/>
  <polygon points="1072.7,553.1 965.0,675.4 844.5,643.7 859.1,541.9 941.0,479.8" fill="url(#shardGrad4)" opacity="0.3" filter="url(#dof)"/>
  <polygon points="891.4,350.6 570.4,475.0 613.3,272.8" fill="url(#shardGrad1)" opacity="0.3" filter="url(#dof)"/>
  <polygon points="851.7,481.6 664.8,530.5 576.6,541.1 569.5,353.6 694.6,357.3" fill="url(#shardGrad1)" opacity="0.3" filter="url(#dof)"/>
  <polygon points="1273.5,633.1 933.5,993.9 777.1,701.8 1018.4,386.1" fill="url(#shardGrad5)" opacity="0.3" filter="url(#dof)"/>
  <polygon points="1468.4,585.2 1389.9,779.2 950.6,904.0 948.1,317.8 1352.5,216.9" fill="url(#shardGrad1)" opacity="0.3" filter="url(#dof)"/>
  <polygon points="1551.1,520.5 1238.8,806.8 948.6,589.8 1132.9,142.7" fill="url(#shardGrad1)" opacity="0.3" filter="url(#dof)"/>
  <polygon points="849.6,556.5 653.8,611.9 701.5,493.1" fill="url(#shardGrad3)" opacity="0.3" filter="url(#dof)"/>
  <polygon points="745.0,755.7 541.1,909.8 468.5,887.4 443.4,739.8 581.6,674.4" fill="url(#shardGrad4)" opacity="0.3" filter="url(#dof)"/>
  <polygon points="1748.9,771.1 1410.1,1045.1 1252.1,732.6 1377.1,525.2" fill="url(#shardGrad4)" opacity="0.3" filter="url(#dof)"/>
  <polygon points="1086.0,602.2 754.4,832.7 441.2,763.0 302.7,494.5 655.1,279.6" fill="url(#shardGrad4)" opacity="0.3" filter="url(#dof)"/>
  <polygon points="620.9,659.2 507.3,710.9 396.2,641.8 517.0,558.7" fill="url(#shardGrad1)" opacity="0.3" filter="url(#dof)"/>
  <polygon points="1129.6,225.9 994.6,313.8 899.9,369.7 918.0,220.5 1064.9,144.0" fill="url(#shardGrad2)" opacity="0.3" filter="url(#dof)"/>
  <polygon points="1439.8,440.3 1359.4,467.6 1296.2,476.2 1265.6,384.8 1341.0,362.2" fill="url(#shardGrad5)" opacity="0.3" filter="url(#dof)"/>
  <polygon points="1082.6,828.1 882.6,958.6 923.2,723.4" fill="url(#shardGrad1)" opacity="0.3" filter="url(#dof)"/>
  <polygon points="1817.5,568.4 1522.8,882.1 1337.7,652.8 1445.5,262.9" fill="url(#shardGrad4)" opacity="0.3" filter="url(#dof)"/>
  <polygon points="1363.0,503.3 1035.0,777.8 785.2,493.6 1067.9,65.9" fill="url(#shardGrad4)" opacity="0.3" filter="url(#dof)"/>
  <polygon points="1216.9,494.5 875.6,862.8 972.0,384.7" fill="url(#shardGrad3)" opacity="0.3" filter="url(#dof)"/>
  <polygon points="1716.7,481.6 1465.2,778.8 1191.8,388.3 1501.7,136.8" fill="url(#shardGrad3)" opacity="0.3" filter="url(#dof)"/>
  <polygon points="1384.8,864.3 1254.0,886.8 1271.5,748.5" fill="url(#shardGrad1)" opacity="0.3" filter="url(#dof)"/>
  <polygon points="885.8,241.3 631.8,342.6 590.4,115.8" fill="url(#shardGrad4)" opacity="0.3" filter="url(#dof)"/>
  <polygon points="1485.7,687.4 1106.8,878.4 840.2,564.9 1214.1,306.5" fill="url(#shardGrad1)" opacity="0.3" filter="url(#dof)"/>
  <polygon points="1454.7,813.6 1386.3,852.4 1325.4,823.7 1383.2,731.5" fill="url(#shardGrad5)" opacity="0.3" filter="url(#dof)"/>
  <polygon points="1675.9,552.5 1209.2,760.5 989.6,455.0 1248.3,98.8" fill="url(#shardGrad2)" opacity="0.3" filter="url(#dof)"/>
  <polygon points="1310.4,258.7 1179.2,475.2 896.7,317.8 1218.2,-46.5" fill="url(#shardGrad1)" opacity="0.3" filter="url(#dof)"/>
  <polygon points="959.9,236.1 801.6,291.1 800.1,126.0" fill="url(#shardGrad3)" opacity="0.3" filter="url(#dof)"/>
  <polygon points="772.9,348.6 573.0,460.4 440.3,337.3 555.7,191.5" fill="url(#shardGrad4)" opacity="0.3" filter="url(#dof)"/>
  <polygon points="1043.1,244.4 916.2,373.7 845.3,251.4 948.6,133.2" fill="url(#shardGrad3)" opacity="0.3" filter="url(#dof)"/>
  <polygon points="1349.8,517.9 1235.6,617.3 1097.3,599.1 1148.0,458.7 1291.4,396.6" fill="url(#shardGrad2)" opacity="0.3" filter="url(#dof)"/>
  <polygon points="947.2,595.5 410.5,947.9 406.9,419.6" fill="url(#shardGrad3)" opacity="0.3" filter="url(#dof)"/>
  <polygon points="905.8,586.4 892.3,649.4 774.0,621.5 812.3,550.4 897.3,476.8" fill="url(#shardGrad4)" opacity="0.3" filter="url(#dof)"/>
  <polygon points="1638.9,618.1 1394.3,713.0 1441.5,501.2" fill="url(#shardGrad1)" opacity="0.3" filter="url(#dof)"/>
  <polygon points="856.4,338.0 743.8,529.5 658.4,305.3 770.5,176.8" fill="url(#shardGrad5)" opacity="0.3" filter="url(#dof)"/>
  <polygon points="580.1,636.2 338.0,852.2 340.9,418.8" fill="url(#shardGrad1)" opacity="0.3" filter="url(#dof)"/>
  <polygon points="1402.1,818.3 1212.5,918.0 1224.4,690.8" fill="url(#shardGrad2)" opacity="0.3" filter="url(#dof)"/>
  <polygon points="687.7,263.2 371.7,456.3 209.1,274.3 433.8,184.2" fill="url(#shardGrad4)" opacity="0.3" filter="url(#dof)"/>
  <polygon points="1189.0,161.5 731.0,512.9 828.0,-8.0" fill="url(#shardGrad3)" opacity="0.3" filter="url(#dof)"/>
  <polygon points="613.5,620.4 404.2,802.2 409.3,554.1" fill="url(#shardGrad2)" opacity="0.3" filter="url(#dof)"/>
  <polygon points="1237.3,293.0 962.1,378.8 962.1,86.5" fill="url(#shardGrad3)" opacity="0.3" filter="url(#dof)"/>
  <polygon points="921.9,765.9 839.8,943.8 677.9,890.9 676.0,709.8 834.2,715.4" fill="url(#shardGrad4)" opacity="0.3" filter="url(#dof)"/>
  <polygon points="543.5,797.1 462.6,938.1 236.9,875.2 330.2,796.5 440.8,725.1" fill="url(#shardGrad4)" opacity="0.3" filter="url(#dof)"/>
  <polygon points="1062.5,757.9 950.1,870.5 831.1,852.3 807.8,674.6 947.8,620.4" fill="url(#shardGrad2)" opacity="0.3" filter="url(#dof)"/>
  <polygon points="713.9,445.7 431.5,578.9 482.6,348.1" fill="url(#shardGrad5)" opacity="0.3" filter="url(#dof)"/>
  <polygon points="1083.6,709.1 1022.5,961.1 671.4,858.3 696.6,635.4 955.0,615.9" fill="url(#shardGrad4)" opacity="0.3" filter="url(#dof)"/>
  <polygon points="1671.1,225.0 1470.6,385.5 1283.0,380.6 1114.6,144.5 1423.3,66.9" fill="url(#shardGrad1)" opacity="0.3" filter="url(#dof)"/>
  <polygon points="1109.4,366.3 924.3,586.6 867.1,278.1" fill="url(#shardGrad4)" opacity="0.3" filter="url(#dof)"/>
  <polygon points="908.9,559.4 537.2,853.3 596.0,488.0" fill="url(#shardGrad3)" opacity="0.3" filter="url(#dof)"/>
  <polygon points="1625.3,1162.0 1444.9,1310.2 1087.2,1152.6 1373.1,877.3" fill="url(#shardGrad1)" opacity="0.66" filter="url(#glow)"/>
  <polygon points="1137.9,-111.8 1022.8,14.0 896.2,102.4 815.5,-79.1 836.1,-188.8 895.2,-209.9 1008.2,-216.5" fill="url(#shardGrad3)" opacity="0.57" filter="url(#glow)"/>
  <polygon points="1238.5,1039.2 1128.2,1180.9 1031.0,1088.1 962.4,929.2 1117.8,931.5" fill="url(#shardGrad1)" opacity="0.62" filter="url(#glow)"/>
  <polygon points="1273.6,504.2 1206.2,608.7 1028.5,510.3 1208.1,342.9" fill="url(#shardGrad2)" opacity="0.72" filter="url(#glow)"/>
  <polygon points="1237.3,689.5 1115.2,857.3 914.3,790.1 899.0,561.5 1146.0,450.8" fill="url(#shardGrad3)" opacity="0.61" filter="url(#glow)"/>
  <polygon points="1343.6,-28.0 1227.3,87.0 1093.1,68.3 1103.2,-106.8 1249.8,-145.1" fill="url(#shardGrad5)" opacity="0.47" filter="url(#glow)"/>
  <polygon points="1324.2,1416.5 979.9,1647.6 826.3,1368.7 1000.7,1222.1" fill="url(#shardGrad1)" opacity="0.7" filter="url(#glow)"/>
  <polygon points="1416.9,862.8 1318.1,957.0 1218.0,852.9 1300.6,738.0" fill="url(#shardGrad2)" opacity="0.43" filter="url(#glow)"/>
  <polygon points="1519.2,-529.8 1268.3,-413.1 1067.2,-373.0 1000.2,-703.9 1294.0,-712.1" fill="url(#shardGrad3)" opacity="0.73" filter="url(#glow)"/>
  <polygon points="1737.3,-11.0 1531.0,131.3 1426.2,-21.0 1486.8,-218.2" fill="url(#shardGrad1)" opacity="0.53" filter="url(#glow)"/>
  <polygon points="1239.8,890.6 1129.3,1199.6 845.2,847.1 1117.5,636.8" fill="url(#shardGrad2)" opacity="0.59" filter="url(#glow)"/>
  <polygon points="1502.8,789.6 1345.5,915.6 1123.1,1011.2 1041.3,779.2 1137.2,551.0 1361.4,558.7" fill="url(#shardGrad2)" opacity="0.75" filter="url(#glow)"/>
  <polygon points="2043.8,1244.9 1895.6,1514.2 1687.1,1396.6 1637.1,1072.3 1889.3,1002.3" fill="url(#shardGrad3)" opacity="0.7" filter="url(#glow)"/>
  <polygon points="960.7,1641.2 895.6,1688.7 822.7,1647.0 885.0,1597.0" fill="url(#shardGrad2)" opacity="0.63" filter="url(#glow)"/>
  <polygon points="1165.4,463.5 1126.5,652.1 915.0,627.3 693.7,573.5 717.2,391.2 877.7,207.4 1083.3,330.3" fill="url(#shardGrad2)" opacity="0.41" filter="url(#glow)"/>
  <polygon points="1141.2,18.4 1031.5,128.8 918.4,70.1 864.3,-107.4 1065.3,-107.4" fill="url(#shardGrad5)" opacity="0.62" filter="url(#glow)"/>
  <polygon points="1109.1,329.8 840.9,522.6 619.5,306.4 826.9,183.5" fill="url(#shardGrad2)" opacity="0.61" filter="url(#glow)"/>
  <polygon points="1208.7,552.0 1116.4,747.1 905.2,547.8 1080.2,346.2" fill="url(#shardGrad2)" opacity="0.47" filter="url(#glow)"/>
  <polygon points="1624.5,1423.1 1601.0,1498.9 1520.2,1458.5 1461.4,1353.4 1584.8,1361.3" fill="url(#shardGrad5)" opacity="0.59" filter="url(#glow)"/>
  <polygon points="1196.9,564.2 1147.8,723.3 1026.4,723.0 993.8,569.3 1023.7,398.7 1211.0,395.9" fill="url(#shardGrad1)" opacity="0.74" filter="url(#glow)"/>
  <polygon points="1228.5,-435.8 1028.2,-274.5 877.2,-241.1 845.2,-392.1 872.9,-513.9 1071.7,-517.1" fill="url(#shardGrad2)" opacity="0.53" filter="url(#glow)"/>
  <polygon points="1786.3,999.0 1707.6,1082.9 1652.9,1000.1 1707.3,904.3" fill="url(#shardGrad2)" opacity="0.51" filter="url(#glow)"/>
  <polygon points="1157.0,698.1 1040.5,824.6 925.4,673.8 1080.4,615.1" fill="url(#shardGrad5)" opacity="0.78" filter="url(#glow)"/>
  <polygon points="1088.7,1667.2 950.0,1817.9 762.4,1703.8 957.9,1524.5" fill="url(#shardGrad4)" opacity="0.71" filter="url(#glow)"/>
  <polygon points="912.5,-92.5 798.6,-10.9 724.8,-90.3 817.2,-183.8" fill="url(#shardGrad5)" opacity="0.49" filter="url(#glow)"/>
  <polygon points="2051.1,933.7 1850.1,1018.1 1751.4,914.5 1854.4,846.2" fill="url(#shardGrad4)" opacity="0.42" filter="url(#glow)"/>
  <polygon points="839.2,-214.2 801.3,-125.1 724.6,-155.7 627.8,-194.2 694.5,-263.1 717.7,-296.8 812.3,-326.4" fill="url(#shardGrad5)" opacity="0.59" filter="url(#glow)"/>
  <polygon points="2133.9,519.1 2105.2,580.4 2025.0,563.6 1934.6,529.1 2005.7,437.3 2143.2,414.3" fill="url(#shardGrad3)" opacity="0.6" filter="url(#glow)"/>
  <polygon points="669.4,1487.2 638.9,1634.5 415.8,1654.9 226.9,1536.2 308.9,1330.1 429.3,1191.9 701.0,1232.5" fill="url(#shardGrad2)" opacity="0.51" filter="url(#glow)"/>
  <polygon points="585.9,146.4 389.6,281.5 246.4,213.1 254.7,3.2 434.8,-54.7" fill="url(#shardGrad1)" opacity="0.5" filter="url(#glow)"/>
  <polygon points="994.1,303.6 975.6,379.2 894.0,382.0 870.4,321.7 920.5,256.1 1001.9,244.0" fill="url(#shardGrad3)" opacity="0.77" filter="url(#glow)"/>
  <polygon points="1753.8,639.1 1690.7,836.3 1449.5,726.7 1565.1,567.3 1706.1,504.3" fill="url(#shardGrad4)" opacity="0.42" filter="url(#glow)"/>
  <polygon points="1130.6,436.7 1037.9,565.1 864.3,395.0 1042.2,247.6" fill="url(#shardGrad3)" opacity="0.43" filter="url(#glow)"/>
  <polygon points="1668.7,667.0 1527.4,847.5 1374.9,676.0 1517.7,475.3" fill="url(#shardGrad3)" opacity="0.42" filter="url(#glow)"/>
  <polygon points="132.5,970.2 89.2,1037.4 39.8,1050.0 -11.1,1011.2 -48.3,945.1 33.9,894.9 87.7,928.0" fill="url(#shardGrad3)" opacity="0.44" filter="url(#glow)"/>
  <polygon points="1315.1,612.9 1124.4,748.6 933.9,783.8 770.3,731.8 810.8,521.6 941.5,267.7 1183.6,315.6" fill="url(#shardGrad4)" opacity="0.77" filter="url(#glow)"/>
  <polygon points="1415.8,842.5 1279.6,1032.6 1047.9,1045.7 1055.0,797.6 1113.2,648.9 1238.2,642.3" fill="url(#shardGrad2)" opacity="0.53" filter="url(#glow)"/>
  <polygon points="266.1,773.4 155.9,886.3 45.5,785.1 180.4,678.6" fill="url(#shardGrad4)" opacity="0.7" filter="url(#glow)"/>
  <polygon points="949.0,413.2 806.2,486.8 706.4,419.5 804.8,284.4" fill="url(#shardGrad3)" opacity="0.55" filter="url(#glow)"/>
  <polygon points="1818.2,1473.7 1632.1,1644.2 1492.9,1567.8 1502.8,1431.4 1632.0,1343.6" fill="url(#shardGrad3)" opacity="0.73" filter="url(#glow)"/>
  <polygon points="423.5,124.8 364.5,207.6 290.2,214.8 237.4,146.2 154.5,71.6 274.2,15.5 396.8,32.7" fill="url(#shardGrad5)" opacity="0.44" filter="url(#glow)"/>
  <polygon points="766.6,912.0 657.0,1065.4 523.4,1091.6 396.0,896.3 501.3,743.3 718.5,733.4" fill="url(#shardGrad5)" opacity="0.43" filter="url(#glow)"/>
  <polygon points="954.1,-182.3 916.1,-105.7 841.3,-98.0 800.3,-192.0 847.3,-224.7 906.1,-234.9" fill="url(#shardGrad1)" opacity="0.61" filter="url(#glow)"/>
  <polygon points="1298.5,515.0 1167.5,720.2 960.7,762.3 750.3,648.0 742.8,468.9 940.5,275.9 1202.0,361.8" fill="url(#shardGrad3)" opacity="0.59" filter="url(#glow)"/>
  <polygon points="1259.8,566.1 1104.9,833.4 880.8,798.0 808.0,585.4 859.4,421.6 1081.8,454.1" fill="url(#shardGrad2)" opacity="0.5" filter="url(#glow)"/>
  <polygon points="776.4,1079.0 715.7,1174.2 592.8,1148.7 588.5,1022.0 682.1,931.1" fill="url(#shardGrad5)" opacity="0.75" filter="url(#glow)"/>
  <polygon points="1361.0,1646.1 1287.1,1781.9 1134.5,1697.4 1165.9,1563.3 1279.5,1522.1" fill="url(#shardGrad2)" opacity="0.62" filter="url(#glow)"/>
  <polygon points="1204.1,-122.5 990.8,45.4 840.6,26.3 807.3,-260.7 1050.0,-350.3" fill="url(#shardGrad2)" opacity="0.49" filter="url(#glow)"/>
  <polygon points="1216.9,-366.2 1180.9,-216.2 1097.2,-270.8 968.6,-289.6 1027.7,-400.2 1090.6,-493.9 1164.0,-403.9" fill="url(#shardGrad1)" opacity="0.49" filter="url(#glow)"/>
  <polygon points="308.4,914.7 78.1,1088.1 -141.4,952.3 110.4,614.8" fill="url(#shardGrad1)" opacity="0.44" filter="url(#glow)"/>
  <polygon points="1112.3,344.0 1027.5,451.2 913.9,353.5 1042.7,222.0" fill="url(#shardGrad5)" opacity="0.74" filter="url(#glow)"/>
  <polygon points="1560.4,394.0 1349.6,582.9 1182.3,382.8 1368.2,209.4" fill="url(#shardGrad4)" opacity="0.42" filter="url(#glow)"/>
  <polygon points="366.4,1296.9 331.4,1358.3 256.1,1408.4 205.4,1303.7 256.6,1246.0 356.7,1197.5" fill="url(#shardGrad5)" opacity="0.44" filter="url(#glow)"/>
  <polygon points="2021.1,1026.3 1751.6,1223.6 1664.8,993.6 1780.2,808.1" fill="url(#shardGrad4)" opacity="0.74" filter="url(#glow)"/>
  <polygon points="989.9,93.0 877.0,283.6 496.6,247.6 622.3,-11.2 930.9,-190.2" fill="url(#shardGrad4)" opacity="0.49" filter="url(#glow)"/>
  <polygon points="1062.1,476.0 1022.7,532.7 938.7,547.4 951.5,436.4 1009.3,423.0" fill="url(#shardGrad5)" opacity="0.68" filter="url(#glow)"/>
  <polygon points="1508.8,1221.6 1510.0,1501.2 1162.9,1448.7 1027.3,1204.8 1185.6,1128.7 1407.2,1002.4" fill="url(#shardGrad3)" opacity="0.77" filter="url(#glow)"/>
  <polygon points="1537.1,1069.7 1409.8,1286.7 1231.1,1251.6 960.4,1227.1 1070.5,1033.3 1237.1,974.8 1341.3,1001.3" fill="url(#shardGrad3)" opacity="0.71" filter="url(#glow)"/>
  <polygon points="554.8,-175.3 541.7,-112.7 464.6,-144.3 463.6,-215.4 542.9,-257.5" fill="url(#shardGrad2)" opacity="0.68" filter="url(#glow)"/>
  <polygon points="1704.8,530.2 1458.6,706.1 1199.8,596.4 1435.3,364.2" fill="url(#shardGrad1)" opacity="0.6" filter="url(#glow)"/>
  <polygon points="181.1,1228.3 72.8,1301.4 -29.1,1225.0 54.2,1148.7" fill="url(#shardGrad2)" opacity="0.73" filter="url(#glow)"/>
  <polygon points="1861.7,401.1 1804.9,599.1 1582.1,605.0 1554.9,408.6 1544.8,243.6 1812.8,148.7" fill="url(#shardGrad1)" opacity="0.55" filter="url(#glow)"/>
  <polygon points="1245.8,296.4 1274.4,356.7 1194.8,350.2 1149.2,327.8 1159.9,273.6 1183.3,237.6 1262.9,238.9" fill="url(#shardGrad1)" opacity="0.75" filter="url(#glow)"/>
  <polygon points="1212.0,1489.7 1134.8,1581.5 1025.8,1545.5 998.2,1472.1 1041.7,1418.5 1135.0,1408.9" fill="url(#shardGrad3)" opacity="0.63" filter="url(#glow)"/>
  <polygon points="1709.7,1219.2 1617.7,1340.8 1507.4,1422.5 1400.0,1247.4 1419.7,1121.1 1468.6,1039.7 1620.0,1063.9" fill="url(#shardGrad4)" opacity="0.59" filter="url(#glow)"/>
  <polygon points="508.6,-136.9 180.8,54.4 -44.5,-98.4 201.3,-317.6" fill="url(#shardGrad2)" opacity="0.5" filter="url(#glow)"/>
  <polygon points="442.4,610.9 467.0,734.3 248.0,775.0 195.7,667.7 104.2,454.0 282.0,458.5 388.7,423.4" fill="url(#shardGrad1)" opacity="0.73" filter="url(#glow)"/>
  <polygon points="580.6,1464.2 491.0,1630.8 352.3,1569.6 280.9,1535.4 189.1,1327.5 360.6,1310.9 493.5,1284.7" fill="url(#shardGrad2)" opacity="0.57" filter="url(#glow)"/>
  <polygon points="1216.5,719.6 978.8,970.7 712.9,828.4 672.1,553.5 985.0,584.8" fill="url(#shardGrad1)" opacity="0.41" filter="url(#glow)"/>
  <polygon points="1042.2,509.9 941.6,671.6 769.8,580.6 553.7,599.5 660.4,418.6 731.1,270.6 868.6,344.1" fill="url(#shardGrad5)" opacity="0.65" filter="url(#glow)"/>
  <polygon points="568.1,-53.4 518.9,51.6 415.7,12.0 413.4,-91.5 502.8,-127.3" fill="url(#shardGrad4)" opacity="0.47" filter="url(#glow)"/>
  <polygon points="1038.3,634.3 1000.4,702.7 936.7,707.7 926.7,627.9 946.2,584.8 1031.1,554.3" fill="url(#shardGrad2)" opacity="0.54" filter="url(#glow)"/>
  <polygon points="760.3,1451.5 701.8,1526.4 572.3,1510.8 608.8,1386.8 711.5,1298.4" fill="url(#shardGrad4)" opacity="0.41" filter="url(#glow)"/>
  <polygon points="1030.7,763.4 1032.8,960.3 738.9,924.4 588.2,817.1 669.9,647.8 696.8,472.5 940.5,570.5" fill="url(#shardGrad4)" opacity="0.67" filter="url(#glow)"/>
  <polygon points="356.1,936.7 263.2,1096.5 103.4,921.7 204.4,738.5" fill="url(#shardGrad2)" opacity="0.68" filter="url(#glow)"/>
  <polygon points="1180.5,554.1 1179.3,726.3 939.6,755.1 775.0,522.3 952.1,389.6 1107.9,381.8" fill="url(#shardGrad5)" opacity="0.61" filter="url(#glow)"/>
  <polygon points="1270.9,-534.7 1179.5,-464.4 1115.6,-524.3 1177.1,-602.8" fill="url(#shardGrad1)" opacity="0.72" filter="url(#glow)"/>
  <polygon points="1035.0,-319.1 923.2,-181.5 724.6,-275.8 911.0,-386.4" fill="url(#shardGrad1)" opacity="0.68" filter="url(#glow)"/>
  <polygon points="1653.4,1161.0 1580.8,1280.1 1412.6,1321.2 1233.6,1221.3 1247.7,1026.3 1408.3,1018.8 1622.2,966.8" fill="url(#shardGrad5)" opacity="0.43" filter="url(#glow)"/>
  <polygon points="604.8,1100.1 480.3,1205.0 353.2,1169.2 213.8,1112.5 277.8,930.1 540.9,888.4" fill="url(#shardGrad2)" opacity="0.44" filter="url(#glow)"/>
  <polygon points="1046.4,602.9 1006.2,652.3 950.7,630.5 952.7,558.2 1010.4,531.4" fill="url(#shardGrad3)" opacity="0.41" filter="url(#glow)"/>
  <polygon points="308.3,932.7 236.0,1008.8 162.4,1046.3 39.3,1036.5 38.3,901.3 167.2,886.5 225.3,901.0" fill="url(#shardGrad2)" opacity="0.47" filter="url(#glow)"/>
  <polygon points="1075.3,517.3 989.2,716.0 686.4,540.0 986.5,337.9" fill="url(#shardGrad2)" opacity="0.49" filter="url(#glow)"/>
  <polygon points="1205.0,522.0 1037.5,693.8 841.6,689.5 858.2,454.9 1029.7,431.7" fill="url(#shardGrad4)" opacity="0.42" filter="url(#glow)"/>
  <polygon points="1646.5,1553.0 1376.6,1694.5 1166.8,1502.0 1351.0,1327.6" fill="url(#shardGrad5)" opacity="0.56" filter="url(#glow)"/>
  <polygon points="1710.2,812.2 1567.1,905.5 1427.1,813.7 1583.2,743.2" fill="url(#shardGrad3)" opacity="0.5" filter="url(#glow)"/>
  <polygon points="981.3,762.4 847.9,915.5 629.1,877.6 664.5,653.4 893.4,610.8" fill="url(#shardGrad1)" opacity="0.65" filter="url(#glow)"/>
  <polygon points="1466.0,213.2 1387.9,359.2 1253.6,383.8 1156.5,277.1 1146.7,167.9 1237.3,-2.5 1505.4,-3.3" fill="url(#shardGrad5)" opacity="0.45" filter="url(#glow)"/>
  <polygon points="1012.3,389.6 804.0,525.2 711.8,363.1 836.6,201.9" fill="url(#shardGrad2)" opacity="0.49" filter="url(#glow)"/>
  <polygon points="1227.4,-32.0 1140.0,145.8 981.8,179.0 846.4,-10.9 961.6,-152.7 1164.1,-141.5" fill="url(#shardGrad1)" opacity="0.49" filter="url(#glow)"/>
  <polygon points="1093.2,548.6 948.3,817.1 829.3,523.0 935.0,383.9" fill="url(#shardGrad5)" opacity="0.61" filter="url(#glow)"/>
  <polygon points="1121.4,1382.3 894.4,1623.1 583.4,1378.5 918.5,1070.1" fill="url(#shardGrad3)" opacity="0.45" filter="url(#glow)"/>
  <polygon points="1682.4,536.7 1671.8,582.2 1591.5,600.8 1536.1,556.3 1553.0,503.0 1595.6,434.5 1647.4,476.2" fill="url(#shardGrad2)" opacity="0.43" filter="url(#glow)"/>
  <polygon points="572.5,1084.3 540.7,1131.4 481.1,1144.0 441.0,1109.8 420.7,1044.4 470.8,1006.8 543.5,1031.7" fill="url(#shardGrad5)" opacity="0.59" filter="url(#glow)"/>
  <polygon points="891.0,312.4 804.1,384.1 739.6,359.8 707.9,292.0 829.5,241.1" fill="url(#shardGrad1)" opacity="0.65" filter="url(#glow)"/>
  <polygon points="1008.8,526.8 1070.0,638.5 887.3,664.8 795.9,559.2 764.7,430.3 880.2,405.7 997.2,415.5" fill="url(#shardGrad4)" opacity="0.77" filter="url(#glow)"/>
  <polygon points="1268.4,634.0 1211.4,887.1 1037.3,764.5 929.9,658.3 994.7,474.9 1260.6,504.8" fill="url(#shardGrad5)" opacity="0.55" filter="url(#glow)"/>
  <polygon points="1101.7,688.6 1003.1,824.1 830.2,789.0 792.9,534.7 995.6,493.7" fill="url(#shardGrad2)" opacity="0.66" filter="url(#glow)"/>
  <polygon points="1232.3,924.2 1106.1,1082.9 994.0,1014.1 967.1,820.7 1147.8,804.9" fill="url(#shardGrad1)" opacity="0.41" filter="url(#glow)"/>
  <polygon points="1041.8,1617.6 956.3,1708.6 836.0,1749.4 830.1,1618.7 850.0,1512.1 969.4,1527.3" fill="url(#shardGrad1)" opacity="0.67" filter="url(#glow)"/>
  <polygon points="1290.2,518.0 1154.3,668.9 967.7,737.1 956.3,550.7 988.2,412.0 1182.2,413.5" fill="url(#shardGrad1)" opacity="0.42" filter="url(#glow)"/>
  <polygon points="1911.0,120.2 1826.7,275.9 1633.4,248.7 1586.2,117.2 1622.3,32.6 1758.3,12.7" fill="url(#shardGrad4)" opacity="0.52" filter="url(#glow)"/>
  <polygon points="1780.0,600.8 1766.8,708.2 1681.7,722.1 1566.1,627.1 1611.2,532.7 1652.1,479.8 1733.8,541.0" fill="url(#shardGrad3)" opacity="0.56" filter="url(#glow)"/>
  <polygon points="1535.0,-153.7 1437.5,-112.2 1377.9,-128.5 1321.3,-220.4 1447.5,-237.3" fill="url(#shardGrad4)" opacity="0.63" filter="url(#glow)"/>
  <polygon points="1537.6,-506.9 1487.5,-413.4 1410.8,-372.6 1371.8,-479.6 1376.3,-537.3 1426.2,-564.1 1469.9,-547.7" fill="url(#shardGrad2)" opacity="0.76" filter="url(#glow)"/>
  <polygon points="1084.2,-231.5 1004.0,-192.4 955.2,-239.5 1022.2,-305.9" fill="url(#shardGrad2)" opacity="0.54" filter="url(#glow)"/>
  <polygon points="120.3,257.8 81.1,301.0 -24.1,260.1 64.4,163.6" fill="url(#shardGrad4)" opacity="0.46" filter="url(#glow)"/>
  <polygon points="526.8,603.2 414.2,735.3 266.9,649.4 271.9,506.3 406.0,495.5" fill="url(#shardGrad3)" opacity="0.77" filter="url(#glow)"/>
  <polygon points="309.9,418.9 289.4,617.2 132.4,580.3 -0.4,508.9 -28.4,320.3 162.1,222.3 328.1,288.0" fill="url(#shardGrad4)" opacity="0.42" filter="url(#glow)"/>
  <polygon points="1146.0,865.1 1037.9,1159.6 845.3,1224.6 731.1,988.9 604.2,805.9 846.4,721.1 1021.7,724.0" fill="url(#shardGrad2)" opacity="0.44" filter="url(#glow)"/>
  <polygon points="1570.5,-265.5 1543.4,-185.8 1460.3,-223.6 1467.0,-325.6 1544.0,-312.7" fill="url(#shardGrad4)" opacity="0.6" filter="url(#glow)"/>
  <polygon points="1483.3,-298.2 1340.3,-23.5 952.2,-116.8 912.0,-468.7 1329.0,-572.8" fill="url(#shardGrad4)" opacity="0.7" filter="url(#glow)"/>
  <polygon points="1855.9,1124.1 1705.9,1343.6 1552.8,1152.7 1685.9,1038.7" fill="url(#shardGrad4)" opacity="0.65" filter="url(#glow)"/>
  <polygon points="738.0,366.0 667.7,495.6 547.1,397.9 456.6,264.5 639.4,215.4" fill="url(#shardGrad2)" opacity="0.49" filter="url(#glow)"/>
  <polygon points="1706.9,-239.5 1507.5,-0.5 1264.3,-287.1 1521.0,-534.2" fill="url(#shardGrad3)" opacity="0.61" filter="url(#glow)"/>
  <polygon points="929.6,564.8 865.3,739.9 710.3,647.3 652.7,552.2 706.4,453.0 880.9,361.5" fill="url(#shardGrad2)" opacity="0.74" filter="url(#glow)"/>
  <polygon points="1167.9,551.0 1053.9,673.4 944.5,866.2 804.8,695.8 872.6,498.0 891.1,291.7 1093.0,381.3" fill="url(#shardGrad4)" opacity="0.46" filter="url(#glow)"/>
  <polygon points="1032.2,-57.8 978.0,29.2 885.1,-60.6 977.1,-182.5" fill="url(#shardGrad1)" opacity="0.77" filter="url(#glow)"/>
  <polygon points="1989.2,386.6 1886.9,505.8 1725.8,501.5 1644.8,373.8 1731.7,289.7 1875.3,288.9" fill="url(#shardGrad3)" opacity="0.51" filter="url(#glow)"/>
  <polygon points="1574.4,635.1 1595.0,815.2 1418.0,754.2 1361.2,663.8 1350.4,450.8 1603.3,476.0" fill="url(#shardGrad2)" opacity="0.66" filter="url(#glow)"/>
  <polygon points="1335.0,798.3 1241.4,874.5 1158.8,884.0 1039.8,808.6 1144.3,677.0 1291.7,668.9" fill="url(#shardGrad4)" opacity="0.68" filter="url(#glow)"/>
  <polygon points="403.9,-329.0 380.9,-243.1 270.4,-217.3 206.5,-311.8 267.5,-393.7 364.2,-389.2" fill="url(#shardGrad4)" opacity="0.76" filter="url(#glow)"/>
  <polygon points="1029.8,601.1 1010.5,696.7 924.2,658.5 894.4,609.4 940.9,537.2 1001.0,554.1" fill="url(#shardGrad1)" opacity="0.49" filter="url(#glow)"/>
  <polygon points="1149.0,535.3 1185.0,692.9 916.3,693.9 831.3,579.2 738.5,411.6 917.6,333.3 1129.7,332.7" fill="url(#shardGrad5)" opacity="0.65" filter="url(#glow)"/>
  <polygon points="1258.1,531.9 966.5,860.6 708.8,531.4 976.3,394.7" fill="url(#shardGrad3)" opacity="0.79" filter="url(#glow)"/>
  <polygon points="938.7,-259.2 883.7,-178.9 777.5,-209.6 786.9,-305.9 871.0,-340.3" fill="url(#shardGrad3)" opacity="0.79" filter="url(#glow)"/>
  <polygon points="723.6,689.0 676.7,857.8 444.3,820.1 464.5,540.8 652.0,457.8" fill="url(#shardGrad4)" opacity="0.54" filter="url(#glow)"/>
  <polygon points="959.8,-315.6 807.8,-210.1 595.4,-335.2 789.6,-444.3" fill="url(#shardGrad5)" opacity="0.5" filter="url(#glow)"/>
  <polygon points="1251.1,-316.4 1100.5,-67.7 976.7,-346.8 1080.7,-462.7" fill="url(#shardGrad3)" opacity="0.72" filter="url(#glow)"/>
  <polygon points="1273.6,297.3 1224.2,344.5 1171.3,403.0 1039.1,324.9 1053.8,221.6 1145.5,213.5 1255.1,194.1" fill="url(#shardGrad5)" opacity="0.41" filter="url(#glow)"/>
  <polygon points="1094.7,-346.5 1048.3,-207.8 807.8,-233.9 872.3,-409.6 1009.4,-419.8" fill="url(#shardGrad1)" opacity="0.6" filter="url(#glow)"/>
  <polygon points="585.1,732.0 488.3,758.5 415.3,721.4 490.7,623.2" fill="url(#shardGrad4)" opacity="0.77" filter="url(#glow)"/>
  <polygon points="1025.8,344.4 933.9,578.4 695.9,497.6 664.8,257.7 853.0,185.5" fill="url(#shardGrad3)" opacity="0.75" filter="url(#glow)"/>
  <polygon points="1659.0,522.8 1582.2,616.5 1458.4,604.6 1485.8,492.4 1611.2,410.9" fill="url(#shardGrad2)" opacity="0.58" filter="url(#glow)"/>
  <polygon points="2049.0,431.3 1996.0,544.0 1889.7,500.4 1880.4,395.7 1984.8,353.6" fill="url(#shardGrad4)" opacity="0.75" filter="url(#glow)"/>
  <polygon points="1547.7,944.5 1356.6,1099.3 1210.3,1082.9 1073.0,938.9 1184.5,798.7 1484.7,762.9" fill="url(#shardGrad2)" opacity="0.66" filter="url(#glow)"/>
  <polygon points="876.2,149.5 797.9,222.9 676.7,183.8 687.2,101.5 781.2,28.3" fill="url(#shardGrad3)" opacity="0.65" filter="url(#glow)"/>
  <polygon points="1199.8,33.8 1090.6,281.3 824.6,220.4 863.8,-25.1 1107.3,-200.6" fill="url(#shardGrad5)" opacity="0.78" filter="url(#glow)"/>
  <polygon points="878.8,-541.7 871.9,-422.4 734.0,-342.7 681.5,-515.0 679.4,-628.5 733.8,-695.1 876.6,-664.9" fill="url(#shardGrad2)" opacity="0.73" filter="url(#glow)"/>
  <polygon points="1508.7,801.4 1417.6,947.9 1242.3,768.5 1412.4,635.2" fill="url(#shardGrad2)" opacity="0.67" filter="url(#glow)"/>
  <polygon points="1985.2,55.2 1882.6,240.0 1748.2,181.5 1585.5,70.6 1680.5,-107.9 1859.8,-63.3" fill="url(#shardGrad1)" opacity="0.78" filter="url(#glow)"/>
  <polygon points="911.8,382.8 785.3,488.9 593.1,562.6 587.9,416.6 656.1,244.4 785.7,229.4" fill="url(#shardGrad4)" opacity="0.59" filter="url(#glow)"/>
  <polygon points="538.0,553.9 259.8,665.3 49.2,532.5 301.3,342.1" fill="url(#shardGrad2)" opacity="0.7" filter="url(#glow)"/>
  <polygon points="926.9,594.6 902.7,761.8 769.1,808.4 588.9,691.4 601.1,513.6 786.0,468.4 941.6,425.1" fill="url(#shardGrad5)" opacity="0.69" filter="url(#glow)"/>
  <polygon points="624.2,406.7 555.6,509.3 453.9,455.6 463.5,332.0 559.2,305.5" fill="url(#shardGrad5)" opacity="0.45" filter="url(#glow)"/>
  <polygon points="919.6,352.2 821.1,467.7 614.5,457.3 651.7,236.3 798.0,166.1" fill="url(#shardGrad5)" opacity="0.61" filter="url(#glow)"/>
  <polygon points="1151.4,634.1 1071.3,868.4 881.5,874.3 766.4,694.3 625.6,525.5 872.6,431.0 1023.4,462.6" fill="url(#shardGrad2)" opacity="0.43" filter="url(#glow)"/>
  <polygon points="828.1,-487.8 730.5,-409.5 641.4,-428.4 547.0,-432.0 567.3,-542.3 614.0,-636.9 726.6,-634.4" fill="url(#shardGrad2)" opacity="0.4" filter="url(#glow)"/>
  <polygon points="933.6,808.9 790.0,969.0 591.5,992.2 452.7,805.5 620.1,686.5 815.4,563.9" fill="url(#shardGrad2)" opacity="0.48" filter="url(#glow)"/>
  <polygon points="1006.0,316.9 961.6,348.0 927.2,349.2 897.0,324.5 903.7,283.4 936.3,270.5 977.1,274.9" fill="url(#shardGrad2)" opacity="0.58" filter="url(#glow)"/>
  <polygon points="1081.9,502.4 1083.9,765.0 905.9,720.1 772.2,586.1 764.5,426.3 883.7,278.6 1112.2,326.3" fill="url(#shardGrad3)" opacity="0.43" filter="url(#glow)"/>
  <polygon points="1473.1,938.0 1383.1,1134.1 1243.8,1034.4 1246.3,895.4 1359.8,868.9" fill="url(#shardGrad4)" opacity="0.75" filter="url(#glow)"/>
  <polygon points="1781.5,254.0 1659.4,492.1 1387.5,466.3 1283.1,296.7 1409.9,73.9 1604.5,170.3" fill="url(#shardGrad4)" opacity="0.74" filter="url(#glow)"/>
  <polygon points="1876.6,725.3 1845.4,816.0 1774.9,867.9 1711.3,770.2 1721.1,712.7 1747.3,620.2 1857.5,651.0" fill="url(#shardGrad3)" opacity="0.75" filter="url(#glow)"/>
  <polygon points="1779.8,733.7 1722.4,806.0 1544.9,889.7 1507.6,732.3 1630.3,593.4 1764.6,542.9" fill="url(#shardGrad2)" opacity="0.65" filter="url(#glow)"/>
  <polygon points="1749.9,-206.5 1647.8,-71.4 1472.2,-72.1 1520.3,-255.4 1628.4,-325.0" fill="url(#shardGrad3)" opacity="0.78" filter="url(#glow)"/>
  <polygon points="1021.6,407.9 908.2,532.6 736.7,411.3 867.7,249.6" fill="url(#shardGrad2)" opacity="0.77" filter="url(#glow)"/>
  <polygon points="1764.9,1521.8 1738.6,1706.0 1549.5,1757.6 1384.7,1606.3 1380.4,1388.4 1532.3,1368.8 1640.3,1371.6" fill="url(#shardGrad3)" opacity="0.57" filter="url(#glow)"/>
  <polygon points="1034.5,489.2 893.8,656.2 725.9,495.9 886.5,354.6" fill="url(#shardGrad2)" opacity="0.57" filter="url(#glow)"/>
  <polygon points="979.7,528.0 841.9,651.6 722.8,609.2 711.5,475.8 850.9,431.1" fill="url(#shardGrad2)" opacity="0.46" filter="url(#glow)"/>
  <polygon points="1005.9,967.3 956.2,1125.4 797.9,1129.3 652.7,1069.6 736.6,942.9 792.6,882.7 879.7,903.3" fill="url(#shardGrad2)" opacity="0.4" filter="url(#glow)"/>
  <polygon points="910.6,-112.7 804.4,1.0 649.3,-39.3 525.0,-154.5 627.4,-252.3 810.4,-252.5" fill="url(#shardGrad1)" opacity="0.53" filter="url(#glow)"/>
  <polygon points="1532.6,-186.0 1485.9,-67.0 1350.7,-70.7 1279.5,-190.8 1322.9,-322.8 1497.4,-299.5" fill="url(#shardGrad5)" opacity="0.43" filter="url(#glow)"/>
  <polygon points="1394.7,-82.6 1395.4,19.3 1262.6,-14.6 1113.9,-125.9 1254.0,-162.5 1382.3,-254.6" fill="url(#shardGrad3)" opacity="0.67" filter="url(#glow)"/>
  <polygon points="793.4,734.2 814.6,899.1 613.8,944.7 468.9,850.1 476.6,599.3 634.8,555.0 746.8,639.0" fill="url(#shardGrad1)" opacity="0.67" filter="url(#glow)"/>
  <polygon points="1105.5,868.9 941.2,949.8 816.6,1069.6 765.1,897.4 759.1,780.8 874.3,636.1 968.1,705.2" fill="url(#shardGrad3)" opacity="0.52" filter="url(#glow)"/>
  <polygon points="695.1,1294.0 654.7,1345.6 564.3,1391.8 514.2,1280.3 551.4,1186.4 694.5,1170.6" fill="url(#shardGrad4)" opacity="0.45" filter="url(#glow)"/>
  <polygon points="1786.2,897.5 1701.5,1035.3 1423.8,1005.5 1333.7,870.6 1486.2,750.4 1627.2,741.1" fill="url(#shardGrad3)" opacity="0.61" filter="url(#glow)"/>
  <polygon points="622.8,216.5 409.7,315.6 300.3,212.6 404.5,-4.0" fill="url(#shardGrad3)" opacity="0.54"/>
  <polygon points="283.4,949.6 216.3,1012.6 176.5,931.2 216.7,885.0" fill="url(#shardGrad1)" opacity="0.41"/>
  <polygon points="1217.7,206.0 1163.2,245.5 1169.7,171.3" fill="url(#shardGrad4)" opacity="0.56"/>
  <polygon points="1595.8,981.0 1431.7,1101.9 1372.7,819.1" fill="url(#shardGrad1)" opacity="0.46"/>
  <polygon points="371.7,946.9 325.8,1021.5 202.8,1021.3 202.6,868.1 338.4,859.1" fill="url(#shardGrad2)" opacity="0.48"/>
  <polygon points="1192.0,503.2 1010.3,631.6 1044.0,435.1" fill="url(#shardGrad3)" opacity="0.44"/>
  <polygon points="1100.6,517.9 983.0,616.1 835.3,535.2 1005.9,444.5" fill="url(#shardGrad1)" opacity="0.29"/>
  <polygon points="1622.7,617.8 1561.9,780.0 1380.9,764.8 1288.7,644.7 1401.3,530.0 1555.1,472.0" fill="url(#shardGrad3)" opacity="0.25"/>
  <polygon points="1048.9,660.7 734.7,815.6 747.9,487.4" fill="url(#shardGrad2)" opacity="0.23"/>
  <polygon points="1149.8,466.2 1087.7,603.2 963.0,599.0 921.9,431.1 974.9,279.9 1080.1,387.9" fill="url(#shardGrad1)" opacity="0.44"/>
  <polygon points="934.9,713.2 895.6,771.7 756.3,738.5 753.2,594.1 862.2,631.6" fill="url(#shardGrad5)" opacity="0.28"/>
  <polygon points="950.1,905.3 889.7,933.4 862.6,870.2" fill="url(#shardGrad5)" opacity="0.36"/>
  <polygon points="946.9,444.6 888.2,479.5 886.5,393.9" fill="url(#shardGrad4)" opacity="0.21"/>
  <polygon points="1165.3,601.6 1159.9,791.5 925.6,751.6 981.2,552.3 1088.2,507.5" fill="url(#shardGrad1)" opacity="0.59"/>
  <polygon points="677.7,209.2 657.3,302.9 560.9,198.8 615.0,136.2" fill="url(#shardGrad1)" opacity="0.59"/>
  <polygon points="1753.3,598.9 1759.5,754.6 1645.4,712.6 1594.2,604.4 1663.4,479.9 1775.3,535.4" fill="url(#shardGrad4)" opacity="0.44"/>
  <polygon points="885.4,930.9 758.1,969.6 631.1,935.9 765.0,769.3" fill="url(#shardGrad5)" opacity="0.46"/>
  <polygon points="409.1,261.0 317.1,282.9 319.4,223.9" fill="url(#shardGrad3)" opacity="0.27"/>
  <polygon points="502.3,397.4 407.2,514.4 245.0,413.3 409.3,172.8" fill="url(#shardGrad5)" opacity="0.47"/>
  <polygon points="1358.9,503.5 1291.6,643.2 1167.7,547.8 1265.5,321.7" fill="url(#shardGrad3)" opacity="0.39"/>
  <polygon points="1572.5,269.1 1480.8,432.4 1331.5,300.0 1464.0,211.8" fill="url(#shardGrad3)" opacity="0.42"/>
  <polygon points="1623.0,134.1 1512.7,255.3 1527.7,65.1" fill="url(#shardGrad3)" opacity="0.23"/>
  <polygon points="1606.3,515.7 1564.6,568.4 1499.5,542.2 1523.4,466.6 1606.8,447.3" fill="url(#shardGrad5)" opacity="0.5"/>
  <polygon points="943.7,795.4 852.7,968.6 702.0,913.6 717.5,776.8 692.9,656.7 831.8,580.9" fill="url(#shardGrad5)" opacity="0.48"/>
  <polygon points="586.7,779.4 578.8,902.5 412.6,887.3 330.9,748.1 459.6,713.1 513.9,690.2" fill="url(#shardGrad2)" opacity="0.4"/>
  <polygon points="1695.2,544.3 1622.7,639.7 1436.6,578.7 1529.7,467.5 1674.9,383.2" fill="url(#shardGrad4)" opacity="0.56"/>
  <polygon points="1062.5,531.5 792.1,733.9 781.6,371.3" fill="url(#shardGrad2)" opacity="0.37"/>
  <polygon points="1369.0,803.4 1294.2,944.2 1200.2,893.2 1244.3,792.7 1297.7,782.6" fill="url(#shardGrad3)" opacity="0.26"/>
  <polygon points="1050.4,957.6 1004.0,1070.5 892.2,992.3 867.3,935.7 903.8,883.8 961.4,810.7" fill="url(#shardGrad4)" opacity="0.59"/>
  <polygon points="669.9,487.3 495.2,609.4 346.2,632.1 374.6,386.8 494.4,428.6" fill="url(#shardGrad4)" opacity="0.31"/>
  <polygon points="1030.7,249.9 952.4,332.9 943.8,203.8" fill="url(#shardGrad4)" opacity="0.5"/>
  <polygon points="561.1,262.9 268.2,426.3 263.9,109.0" fill="url(#shardGrad5)" opacity="0.39"/>
  <polygon points="536.2,278.0 438.2,350.2 324.1,352.6 367.3,225.6 441.0,192.2" fill="url(#shardGrad2)" opacity="0.34"/>
  <polygon points="1364.9,975.5 1327.7,1060.9 1277.4,1019.8 1231.3,958.5 1235.2,882.8 1333.4,904.9" fill="url(#shardGrad5)" opacity="0.22"/>
  <polygon points="1666.7,660.9 1516.2,832.2 1474.8,502.1" fill="url(#shardGrad1)" opacity="0.47"/>
  <polygon points="377.0,625.6 219.3,746.1 282.9,544.8" fill="url(#shardGrad1)" opacity="0.39"/>
  <polygon points="1556.6,761.6 1539.8,945.2 1388.8,869.7 1387.8,652.4 1495.8,630.1" fill="url(#shardGrad2)" opacity="0.48"/>
  <polygon points="1131.3,638.2 1105.4,689.4 1050.1,671.1 1058.6,594.3 1113.6,604.8" fill="url(#shardGrad3)" opacity="0.25"/>
  <polygon points="489.4,705.8 424.2,778.3 371.4,751.3 386.9,704.1 450.5,647.6" fill="url(#shardGrad4)" opacity="0.25"/>
  <polygon points="895.2,888.8 907.2,1054.5 709.4,904.4 653.4,791.5 835.4,701.3" fill="url(#shardGrad4)" opacity="0.43"/>
  <polygon points="398.9,378.6 255.5,429.3 174.4,348.1 237.9,232.7" fill="url(#shardGrad1)" opacity="0.54"/>
  <polygon points="1580.7,198.3 1499.3,327.7 1431.0,278.8 1387.6,204.1 1444.5,180.9 1496.0,150.8" fill="url(#shardGrad2)" opacity="0.51"/>
  <polygon points="1126.4,836.3 1009.5,911.2 921.6,858.3 892.9,759.3 1045.5,685.8" fill="url(#shardGrad1)" opacity="0.4"/>
  <polygon points="575.6,663.5 520.7,793.3 396.5,728.9 389.7,634.8 493.1,533.1" fill="url(#shardGrad4)" opacity="0.34"/>
  <polygon points="705.6,535.1 619.3,578.0 516.4,540.3 611.5,398.8" fill="url(#shardGrad4)" opacity="0.45"/>
  <polygon points="1043.2,284.5 918.4,451.8 824.7,278.2 887.0,130.3" fill="url(#shardGrad1)" opacity="0.41"/>
  <polygon points="1137.9,252.7 1102.1,294.4 1066.1,256.3 1036.9,219.1 1124.3,185.9" fill="url(#shardGrad2)" opacity="0.6"/>
  <polygon points="1240.4,856.5 1154.5,1070.9 955.0,870.7 1091.4,731.9" fill="url(#shardGrad4)" opacity="0.3"/>
  <polygon points="1779.4,148.1 1777.8,241.3 1651.3,274.9 1586.2,147.5 1679.5,68.4 1756.5,107.0" fill="url(#shardGrad2)" opacity="0.38"/>
  <polygon points="1214.2,138.7 1020.9,232.7 1086.8,49.3" fill="url(#shardGrad5)" opacity="0.4"/>
  <polygon points="1148.4,168.9 1086.3,192.9 1025.1,229.1 1044.5,174.3 1039.1,124.8 1083.8,142.7" fill="url(#shardGrad5)" opacity="0.33"/>
  <polygon points="1200.8,852.3 1055.0,966.2 1081.3,796.6" fill="url(#shardGrad2)" opacity="0.23"/>
  <polygon points="388.4,692.0 356.3,760.7 265.9,719.4 254.7,619.0 343.1,627.3" fill="url(#shardGrad2)" opacity="0.24"/>
  <polygon points="646.1,736.9 565.8,873.7 438.2,840.3 455.7,707.2 529.3,708.4" fill="url(#shardGrad4)" opacity="0.36"/>
  <polygon points="258.6,749.5 178.4,803.6 178.8,740.1" fill="url(#shardGrad3)" opacity="0.54"/>
  <polygon points="350.8,898.3 278.2,1074.4 112.7,973.1 97.0,812.8 222.0,756.2" fill="url(#shardGrad3)" opacity="0.4"/>
  <path d="M 0,154.28571428571428 L 0,12.0 L 30,13.2 L 60,16.5 L 90,21.8 L 120,29.1 L 150,38.3 L 180,49.2 L 210,61.7 L 240,75.5 L 270,90.6 L 300,106.5 L 330,123.2 L 360,140.4 L 390,157.8 L 420,175.1 L 450,192.1 L 480,208.5 L 510,224.2 L 540,238.7 L 570,252.1 L 600,263.9 L 630,274.2 L 660,282.6 L 690,289.1 L 720,293.7 L 750,296.1 L 780,296.4 L 810,294.6 L 840,290.7 L 870,284.8 L 900,276.9 L 930,267.2 L 960,255.8 L 990,242.9 L 1020,228.6 L 1050,213.3 L 1080,197.1 L 1110,180.2 L 1140,163.0 L 1170,145.6 L 1200,128.3 L 1230,111.5 L 1260,95.3 L 1290,79.9 L 1320,65.7 L 1350,52.8 L 1380,41.4 L 1410,31.7 L 1440,23.8 L 1470,17.9 L 1500,14.0 L 1530,12.2 L 1560,12.5 L 1590,14.9 L 1620,19.4 L 1650,26.0 L 1680,34.4 L 1710,44.6 L 1740,56.5 L 1770,69.8 L 1800,84.4 L 1830,100.1 L 1860,116.5 L 1890,133.5 L 1920,150.8 L 1920,1080 L 0,1080 Z" fill="url(#waveGrad)" opacity="0.43" filter="url(#glow)"/>
  <path d="M 0,308.57142857142856 L 0,141.7 L 30,141.0 L 60,145.2 L 90,154.1 L 120,167.5 L 150,185.0 L 180,206.1 L 210,230.2 L 240,256.5 L 270,284.3 L 300,312.8 L 330,341.2 L 360,368.7 L 390,394.4 L 420,417.6 L 450,437.7 L 480,454.0 L 510,466.1 L 540,473.7 L 570,476.4 L 600,474.3 L 630,467.4 L 660,455.9 L 690,440.1 L 720,420.5 L 750,397.7 L 780,372.3 L 810,345.0 L 840,316.7 L 870,288.1 L 900,260.1 L 930,233.6 L 960,209.2 L 990,187.7 L 1020,169.7 L 1050,155.7 L 1080,146.1 L 1110,141.3 L 1140,141.3 L 1170,146.1 L 1200,155.7 L 1230,169.7 L 1260,187.7 L 1290,209.2 L 1320,233.6 L 1350,260.2 L 1380,288.2 L 1410,316.7 L 1440,345.1 L 1470,372.3 L 1500,397.8 L 1530,420.6 L 1560,440.2 L 1590,456.0 L 1620,467.5 L 1650,474.4 L 1680,476.4 L 1710,473.7 L 1740,466.1 L 1770,454.0 L 1800,437.7 L 1830,417.6 L 1860,394.3 L 1890,368.6 L 1920,341.2 L 1920,1080 L 0,1080 Z" fill="url(#waveGrad)" opacity="0.36" filter="url(#glow)"/>
  <path d="M 0,462.85714285714283 L 0,539.3 L 30,548.4 L 60,557.0 L 90,565.2 L 120,572.8 L 150,579.9 L 180,586.4 L 210,592.3 L 240,597.6 L 270,602.2 L 300,606.1 L 330,609.3 L 360,611.7 L 390,613.4 L 420,614.4 L 450,614.6 L 480,614.1 L 510,612.8 L 540,610.8 L 570,608.0 L 600,604.5 L 630,600.3 L 660,595.5 L 690,589.9 L 720,583.8 L 750,577.0 L 780,569.7 L 810,561.8 L 840,553.5 L 870,544.6 L 900,535.4 L 930,525.9 L 960,516.0 L 990,505.8 L 1020,495.5 L 1050,485.0 L 1080,474.3 L 1110,463.6 L 1140,452.9 L 1170,442.3 L 1200,431.7 L 1230,421.4 L 1260,411.2 L 1290,401.3 L 1320,391.6 L 1350,382.4 L 1380,373.5 L 1410,365.1 L 1440,357.1 L 1470,349.7 L 1500,342.9 L 1530,336.6 L 1560,331.0 L 1590,326.0 L 1620,321.7 L 1650,318.2 L 1680,315.3 L 1710,313.2 L 1740,311.8 L 1770,311.1 L 1800,311.2 L 1830,312.1 L 1860,313.7 L 1890,316.1 L 1920,319.1 L 1920,1080 L 0,1080 Z" fill="url(#waveGrad)" opacity="0.42" filter="url(#glow)"/>
  <path d="M 0,617.1428571428571 L 0,785.5 L 30,782.0 L 60,776.9 L 90,770.1 L 120,761.6 L 150,751.7 L 180,740.4 L 210,727.7 L 240,714.0 L 270,699.2 L 300,683.6 L 330,667.2 L 360,650.4 L 390,633.2 L 420,615.8 L 450,598.4 L 480,581.3 L 510,564.5 L 540,548.3 L 570,532.8 L 600,518.1 L 630,504.5 L 660,492.1 L 690,481.0 L 720,471.3 L 750,463.1 L 780,456.5 L 810,451.6 L 840,448.4 L 870,447.0 L 900,447.4 L 930,449.5 L 960,453.4 L 990,459.0 L 1020,466.2 L 1050,475.0 L 1080,485.3 L 1110,497.0 L 1140,509.9 L 1170,523.9 L 1200,538.9 L 1230,554.8 L 1260,571.2 L 1290,588.2 L 1320,605.5 L 1350,622.8 L 1380,640.2 L 1410,657.2 L 1440,673.9 L 1470,690.0 L 1500,705.3 L 1530,719.7 L 1560,733.0 L 1590,745.1 L 1620,755.9 L 1650,765.2 L 1680,773.0 L 1710,779.2 L 1740,783.7 L 1770,786.4 L 1800,787.4 L 1830,786.6 L 1860,784.0 L 1890,779.7 L 1920,773.7 L 1920,1080 L 0,1080 Z" fill="url(#waveGrad)" opacity="0.57" filter="url(#glow)"/>
  <path d="M 0,771.4285714285714 L 0,727.7 L 30,734.7 L 60,741.7 L 90,749.0 L 120,756.3 L 150,763.7 L 180,771.1 L 210,778.6 L 240,786.0 L 270,793.3 L 300,800.5 L 330,807.6 L 360,814.6 L 390,821.3 L 420,827.8 L 450,834.1 L 480,840.0 L 510,845.7 L 540,851.0 L 570,855.9 L 600,860.5 L 630,864.6 L 660,868.3 L 690,871.6 L 720,874.4 L 750,876.8 L 780,878.6 L 810,880.0 L 840,880.8 L 870,881.2 L 900,881.1 L 930,880.4 L 960,879.3 L 990,877.6 L 1020,875.5 L 1050,872.9 L 1080,869.8 L 1110,866.3 L 1140,862.3 L 1170,857.9 L 1200,853.2 L 1230,848.0 L 1260,842.5 L 1290,836.7 L 1320,830.6 L 1350,824.2 L 1380,817.5 L 1410,810.7 L 1440,803.6 L 1470,796.5 L 1500,789.2 L 1530,781.8 L 1560,774.4 L 1590,766.9 L 1620,759.5 L 1650,752.1 L 1680,744.9 L 1710,737.7 L 1740,730.7 L 1770,723.9 L 1800,717.3 L 1830,711.0 L 1860,704.9 L 1890,699.1 L 1920,693.7 L 1920,1080 L 0,1080 Z" fill="url(#waveGrad)" opacity="0.43" filter="url(#glow)"/>
  <path d="M 0,925.7142857142857 L 0,1003.7 L 30,1021.9 L 60,1037.9 L 90,1051.4 L 120,1062.1 L 150,1069.8 L 180,1074.3 L 210,1075.5 L 240,1073.3 L 270,1067.9 L 300,1059.3 L 330,1047.7 L 360,1033.4 L 390,1016.7 L 420,998.0 L 450,977.7 L 480,956.2 L 510,934.0 L 540,911.7 L 570,889.7 L 600,868.4 L 630,848.5 L 660,830.3 L 690,814.1 L 720,800.5 L 750,789.7 L 780,781.9 L 810,777.2 L 840,775.9 L 870,778.0 L 900,783.3 L 930,791.8 L 960,803.2 L 990,817.4 L 1020,834.0 L 1050,852.6 L 1080,872.9 L 1110,894.3 L 1140,916.5 L 1170,938.8 L 1200,960.9 L 1230,982.1 L 1260,1002.2 L 1290,1020.5 L 1320,1036.7 L 1350,1050.4 L 1380,1061.4 L 1410,1069.3 L 1440,1074.1 L 1470,1075.5 L 1500,1073.6 L 1530,1068.4 L 1560,1060.1 L 1590,1048.7 L 1620,1034.7 L 1650,1018.1 L 1680,999.6 L 1710,979.4 L 1740,958.0 L 1770,935.9 L 1800,913.5 L 1830,891.4 L 1860,870.1 L 1890,850.1 L 1920,831.7 L 1920,1080 L 0,1080 Z" fill="url(#waveGrad)" opacity="0.49" filter="url(#glow)"/>
  <g stroke="#ffffff" stroke-opacity="0.1" stroke-width="1">
    <line x1="152.7" y1="154.9" x2="1650.0" y2="424.9"/>
    <line x1="813.7" y1="767.0" x2="212.1" y2="414.6"/>
    <line x1="822.1" y1="1029.9" x2="1016.1" y2="888.1"/>
    <line x1="1715.1" y1="921.3" x2="377.5" y2="736.6"/>
    <line x1="1550.0" y1="238.0" x2="1913.6" y2="202.2"/>
    <line x1="1867.4" y1="884.6" x2="725.2" y2="512.7"/>
    <line x1="657.6" y1="1028.1" x2="1075.0" y2="836.3"/>
    <line x1="564.9" y1="250.9" x2="1612.9" y2="925.0"/>
    <line x1="802.2" y1="503.2" x2="602.9" y2="681.0"/>
    <line x1="1520.0" y1="122.5" x2="1865.5" y2="646.0"/>
    <line x1="1776.3" y1="91.2" x2="1489.1" y2="167.1"/>
    <line x1="143.0" y1="116.3" x2="1000.8" y2="253.6"/>
    <line x1="1676.3" y1="622.9" x2="984.3" y2="917.4"/>
    <line x1="77.4" y1="738.7" x2="1400.3" y2="873.8"/>
    <line x1="1865.7" y1="681.1" x2="524.3" y2="461.2"/>
    <line x1="326.9" y1="199.6" x2="1236.6" y2="423.5"/>
    <line x1="1501.6" y1="640.1" x2="1214.7" y2="962.0"/>
    <line x1="693.0" y1="662.3" x2="1167.1" y2="324.8"/>
    <line x1="649.7" y1="589.1" x2="1397.9" y2="966.7"/>
    <line x1="1491.9" y1="568.6" x2="1872.5" y2="365.7"/>
    <line x1="1812.7" y1="544.3" x2="1848.2" y2="55.2"/>
    <line x1="143.6" y1="268.5" x2="1730.8" y2="151.3"/>
    <line x1="827.2" y1="285.6" x2="161.9" y2="577.5"/>
    <line x1="1403.2" y1="737.1" x2="851.2" y2="835.8"/>
    <line x1="898.6" y1="337.4" x2="1912.1" y2="840.9"/>
    <line x1="981.7" y1="159.8" x2="58.1" y2="855.4"/>
    <line x1="347.3" y1="1079.0" x2="730.0" y2="941.3"/>
    <line x1="74.8" y1="75.3" x2="22.3" y2="792.0"/>
    <line x1="467.8" y1="720.4" x2="232.3" y2="198.4"/>
    <line x1="1421.4" y1="203.2" x2="1845.4" y2="929.9"/>
    <line x1="269.7" y1="636.8" x2="16.7" y2="1016.7"/>
    <line x1="1654.2" y1="568.8" x2="1366.0" y2="605.0"/>
    <line x1="1679.7" y1="240.5" x2="1630.8" y2="246.3"/>
    <line x1="1017.6" y1="14.0" x2="19.1" y2="966.1"/>
    <line x1="1615.1" y1="658.6" x2="976.1" y2="886.6"/>
    <line x1="1408.2" y1="265.9" x2="561.6" y2="1025.4"/>
    <line x1="941.1" y1="499.8" x2="81.7" y2="624.5"/>
    <line x1="1411.8" y1="948.4" x2="1496.1" y2="479.2"/>
    <line x1="1101.6" y1="216.8" x2="1484.1" y2="123.1"/>
    <line x1="864.0" y1="591.9" x2="470.7" y2="542.5"/>
    <line x1="78.2" y1="874.8" x2="48.0" y2="309.7"/>
    <line x1="280.0" y1="143.7" x2="390.8" y2="635.0"/>
    <line x1="905.8" y1="670.5" x2="1460.0" y2="390.0"/>
    <line x1="1370.4" y1="728.9" x2="418.2" y2="847.8"/>
    <line x1="1852.4" y1="875.4" x2="1275.1" y2="618.0"/>
    <line x1="1098.8" y1="254.4" x2="100.1" y2="361.2"/>
    <line x1="1415.8" y1="66.1" x2="64.0" y2="428.3"/>
    <line x1="522.0" y1="21.6" x2="381.9" y2="827.6"/>
    <line x1="223.3" y1="1057.3" x2="1894.7" y2="555.7"/>
    <line x1="733.2" y1="14.0" x2="1612.2" y2="663.9"/>
    <line x1="540.7" y1="628.0" x2="507.5" y2="944.9"/>
    <line x1="1013.3" y1="251.1" x2="948.5" y2="384.5"/>
    <line x1="687.9" y1="214.2" x2="590.6" y2="621.5"/>
    <line x1="1288.4" y1="732.2" x2="976.6" y2="1042.6"/>
    <line x1="159.9" y1="29.7" x2="1351.7" y2="831.6"/>
    <line x1="923.2" y1="1069.4" x2="869.1" y2="1021.5"/>
    <line x1="1502.6" y1="1071.4" x2="606.1" y2="777.9"/>
    <line x1="465.2" y1="434.5" x2="1522.4" y2="740.3"/>
    <line x1="757.4" y1="859.1" x2="1367.1" y2="768.1"/>
    <line x1="232.2" y1="764.2" x2="1295.6" y2="859.3"/>
    <line x1="1400.6" y1="39.6" x2="832.0" y2="1068.8"/>
    <line x1="86.1" y1="1040.1" x2="888.3" y2="474.3"/>
    <line x1="329.3" y1="547.3" x2="1343.9" y2="713.1"/>
    <line x1="766.2" y1="784.0" x2="576.4" y2="417.7"/>
    <line x1="528.7" y1="49.8" x2="151.1" y2="1026.9"/>
    <line x1="1039.3" y1="58.8" x2="322.6" y2="140.5"/>
    <line x1="1034.8" y1="996.4" x2="869.2" y2="314.3"/>
    <line x1="676.4" y1="876.3" x2="1728.1" y2="884.1"/>
    <line x1="1401.2" y1="476.0" x2="500.0" y2="693.3"/>
    <line x1="1316.0" y1="125.3" x2="1275.0" y2="262.4"/>
    <line x1="1314.3" y1="39.1" x2="1083.9" y2="530.2"/>
    <line x1="105.4" y1="890.6" x2="1230.8" y2="1014.3"/>
    <line x1="1150.8" y1="935.7" x2="1718.0" y2="204.4"/>
    <line x1="173.4" y1="232.4" x2="1420.6" y2="18.5"/>
    <line x1="1520.8" y1="918.3" x2="1271.4" y2="364.9"/>
    <line x1="1481.1" y1="210.8" x2="1119.0" y2="95.5"/>
    <line x1="1636.1" y1="358.7" x2="78.6" y2="999.1"/>
    <line x1="803.0" y1="659.2" x2="155.1" y2="594.3"/>
    <line x1="870.9" y1="61.5" x2="248.7" y2="208.8"/>
    <line x1="837.5" y1="706.0" x2="781.8" y2="1034.5"/>
    <line x1="1390.3" y1="588.8" x2="1635.4" y2="549.9"/>
    <line x1="1425.1" y1="1031.2" x2="1191.4" y2="583.7"/>
    <line x1="770.3" y1="452.0" x2="1429.3" y2="436.0"/>
    <line x1="146.0" y1="111.2" x2="1095.7" y2="420.5"/>
    <line x1="467.1" y1="109.6" x2="1908.7" y2="55.4"/>
    <line x1="1460.9" y1="753.2" x2="114.1" y2="934.4"/>
    <line x1="1273.7" y1="704.1" x2="1264.7" y2="70.8"/>
    <line x1="370.8" y1="69.5" x2="604.5" y2="255.8"/>
    <line x1="1884.2" y1="720.9" x2="1300.7" y2="981.1"/>
    <line x1="919.3" y1="221.1" x2="987.0" y2="111.0"/>
    <line x1="1475.4" y1="973.0" x2="588.3" y2="319.2"/>
    <line x1="104.2" y1="512.8" x2="102.3" y2="201.6"/>
    <line x1="1724.3" y1="272.5" x2="1093.2" y2="124.1"/>
    <line x1="505.6" y1="536.9" x2="961.0" y2="737.0"/>
    <line x1="828.1" y1="115.1" x2="728.8" y2="298.4"/>
    <line x1="1713.8" y1="808.6" x2="1337.3" y2="434.6"/>
    <line x1="1798.1" y1="332.8" x2="1286.4" y2="390.8"/>
    <line x1="1282.7" y1="142.0" x2="1002.3" y2="135.0"/>
    <line x1="1556.3" y1="586.6" x2="1751.5" y2="383.7"/>
    <line x1="1054.1" y1="459.8" x2="371.5" y2="691.7"/>
    <line x1="464.6" y1="221.9" x2="770.0" y2="88.4"/>
    <line x1="28.9" y1="164.2" x2="1677.3" y2="51.9"/>
    <line x1="607.9" y1="310.2" x2="1378.8" y2="858.6"/>
    <line x1="766.0" y1="786.8" x2="1301.7" y2="992.3"/>
    <line x1="1452.4" y1="67.9" x2="1461.7" y2="158.9"/>
    <line x1="1694.1" y1="869.9" x2="1845.6" y2="470.3"/>
    <line x1="1723.1" y1="405.2" x2="1796.8" y2="56.1"/>
    <line x1="746.4" y1="400.9" x2="1476.0" y2="185.3"/>
    <line x1="1181.6" y1="264.8" x2="38.6" y2="256.3"/>
    <line x1="1531.8" y1="221.5" x2="19.9" y2="1062.6"/>
    <line x1="23.2" y1="976.6" x2="1606.1" y2="274.1"/>
    <line x1="540.5" y1="708.8" x2="830.7" y2="1002.1"/>
    <line x1="678.5" y1="561.1" x2="407.6" y2="9.4"/>
    <line x1="163.5" y1="74.1" x2="817.9" y2="692.4"/>
    <line x1="1261.9" y1="485.0" x2="664.8" y2="977.5"/>
    <line x1="173.6" y1="17.6" x2="1002.1" y2="123.3"/>
    <line x1="959.5" y1="313.9" x2="1806.6" y2="1062.6"/>
    <line x1="475.0" y1="305.2" x2="742.0" y2="696.3"/>
    <line x1="1100.4" y1="350.4" x2="245.0" y2="693.8"/>
    <line x1="1579.9" y1="362.8" x2="1521.4" y2="967.7"/>
    <line x1="1585.0" y1="146.9" x2="513.1" y2="821.9"/>
    <line x1="1010.4" y1="316.1" x2="60.3" y2="801.7"/>
    <line x1="503.1" y1="1038.7" x2="1545.6" y2="856.4"/>
    <line x1="1233.0" y1="188.4" x2="430.3" y2="850.8"/>
    <line x1="1039.3" y1="1022.6" x2="1913.7" y2="482.5"/>
    <line x1="576.7" y1="203.1" x2="1179.0" y2="557.1"/>
    <line x1="818.0" y1="654.4" x2="417.2" y2="825.7"/>
    <line x1="1145.4" y1="889.7" x2="1071.4" y2="799.6"/>
    <line x1="911.5" y1="194.3" x2="1308.4" y2="573.8"/>
    <line x1="1574.1" y1="517.4" x2="544.3" y2="557.2"/>
    <line x1="137.7" y1="464.6" x2="1726.2" y2="614.7"/>
    <line x1="61.1" y1="109.8" x2="284.0" y2="643.6"/>
    <line x1="1564.1" y1="905.3" x2="771.6" y2="891.5"/>
    <line x1="1372.1" y1="609.1" x2="1580.7" y2="476.4"/>
    <line x1="861.6" y1="748.4" x2="125.4" y2="174.4"/>
    <line x1="831.6" y1="676.3" x2="1081.0" y2="708.6"/>
    <line x1="1248.5" y1="956.0" x2="717.9" y2="79.8"/>
    <line x1="345.9" y1="933.3" x2="1585.4" y2="614.2"/>
    <line x1="170.1" y1="482.8" x2="1581.9" y2="563.0"/>
    <line x1="1566.8" y1="667.6" x2="754.0" y2="302.1"/>
    <line x1="254.8" y1="188.9" x2="1403.3" y2="551.2"/>
    <line x1="1515.3" y1="386.8" x2="1681.4" y2="329.4"/>
    <line x1="96.5" y1="1055.6" x2="1552.6" y2="640.5"/>
    <line x1="805.3" y1="814.3" x2="1257.5" y2="101.4"/>
    <line x1="1575.5" y1="864.0" x2="867.2" y2="3.6"/>
    <line x1="1642.4" y1="913.7" x2="1812.4" y2="235.8"/>
    <line x1="1056.5" y1="153.1" x2="494.4" y2="286.2"/>
    <line x1="1611.4" y1="318.6" x2="453.0" y2="749.9"/>
    <line x1="1638.9" y1="929.4" x2="391.9" y2="529.2"/>
    <line x1="205.2" y1="886.4" x2="689.8" y2="621.9"/>
    <line x1="1150.4" y1="28.6" x2="1793.8" y2="1013.6"/>
    <line x1="1296.5" y1="706.6" x2="1117.7" y2="286.9"/>
    <line x1="836.7" y1="895.1" x2="488.1" y2="1028.6"/>
    <line x1="1784.4" y1="745.0" x2="1414.5" y2="317.0"/>
    <line x1="1404.3" y1="711.6" x2="1340.4" y2="633.4"/>
    <line x1="495.2" y1="744.1" x2="1238.6" y2="327.7"/>
    <line x1="557.9" y1="1018.4" x2="1659.9" y2="812.6"/>
    <line x1="737.2" y1="690.0" x2="753.8" y2="612.3"/>
    <line x1="1703.9" y1="635.3" x2="86.6" y2="332.9"/>
    <line x1="1313.9" y1="578.4" x2="1707.4" y2="735.1"/>
    <line x1="245.8" y1="344.0" x2="1912.7" y2="725.2"/>
    <line x1="1411.3" y1="875.5" x2="1445.3" y2="895.5"/>
    <line x1="1640.0" y1="1054.4" x2="1847.3" y2="390.2"/>
    <line x1="1170.0" y1="224.3" x2="1413.1" y2="288.4"/>
    <line x1="157.0" y1="745.8" x2="111.5" y2="42.7"/>
    <line x1="549.4" y1="89.6" x2="1833.0" y2="94.8"/>
    <line x1="688.5" y1="125.9" x2="853.0" y2="1059.6"/>
    <line x1="762.2" y1="390.2" x2="1003.1" y2="553.3"/>
    <line x1="1277.9" y1="877.2" x2="358.2" y2="39.4"/>
    <line x1="447.9" y1="410.3" x2="257.7" y2="149.2"/>
    <line x1="1613.9" y1="1039.8" x2="1563.7" y2="907.1"/>
    <line x1="101.2" y1="873.2" x2="401.5" y2="315.1"/>
    <line x1="768.8" y1="740.2" x2="44.6" y2="801.2"/>
    <line x1="202.6" y1="1048.3" x2="1311.7" y2="176.4"/>
    <line x1="1401.1" y1="35.7" x2="819.8" y2="281.0"/>
    <line x1="1017.9" y1="971.1" x2="1159.0" y2="971.8"/>
    <line x1="1867.8" y1="481.4" x2="246.5" y2="409.5"/>
    <line x1="540.6" y1="753.4" x2="1018.8" y2="96.5"/>
    <line x1="1346.9" y1="752.9" x2="734.7" y2="680.4"/>
    <line x1="1396.5" y1="127.1" x2="533.3" y2="72.1"/>
    <line x1="971.0" y1="17.4" x2="593.6" y2="41.0"/>
    <line x1="930.0" y1="543.6" x2="730.2" y2="762.2"/>
    <line x1="220.8" y1="157.6" x2="37.7" y2="952.6"/>
    <line x1="807.8" y1="46.3" x2="311.9" y2="504.9"/>
    <line x1="1593.4" y1="496.8" x2="606.9" y2="585.8"/>
    <line x1="692.8" y1="624.2" x2="91.1" y2="166.0"/>
    <line x1="1356.5" y1="806.7" x2="431.0" y2="481.9"/>
    <line x1="738.8" y1="597.6" x2="991.7" y2="92.7"/>
    <line x1="1498.5" y1="1072.2" x2="842.2" y2="562.4"/>
    <line x1="71.3" y1="756.9" x2="1318.7" y2="965.0"/>
    <line x1="1515.7" y1="922.2" x2="1587.3" y2="818.4"/>
    <line x1="834.5" y1="894.9" x2="624.1" y2="212.0"/>
    <line x1="1014.2" y1="364.0" x2="1809.3" y2="349.2"/>
    <line x1="1456.3" y1="123.8" x2="516.4" y2="818.1"/>
    <line x1="106.3" y1="37.2" x2="1496.1" y2="999.0"/>
    <line x1="1755.1" y1="512.6" x2="1102.2" y2="542.8"/>
    <line x1="824.8" y1="760.5" x2="801.9" y2="995.9"/>
    <line x1="645.0" y1="89.6" x2="1193.3" y2="903.4"/>
    <line x1="1102.7" y1="674.9" x2="40.4" y2="926.7"/>
    <line x1="985.1" y1="395.3" x2="1610.6" y2="1025.5"/>
    <line x1="23.6" y1="241.5" x2="253.6" y2="1072.1"/>
    <line x1="20.7" y1="695.4" x2="1086.4" y2="230.3"/>
    <line x1="83.4" y1="543.9" x2="1083.4" y2="649.7"/>
    <line x1="1136.6" y1="1073.8" x2="547.8" y2="762.3"/>
    <line x1="756.6" y1="469.3" x2="1505.1" y2="1076.7"/>
    <line x1="27.7" y1="118.5" x2="969.1" y2="1011.4"/>
    <line x1="1897.9" y1="834.4" x2="1084.2" y2="825.2"/>
    <line x1="255.9" y1="468.6" x2="207.7" y2="1003.9"/>
    <line x1="791.2" y1="254.0" x2="1473.5" y2="233.8"/>
    <line x1="1071.9" y1="373.5" x2="1548.4" y2="676.9"/>
    <line x1="408.4" y1="727.2" x2="650.2" y2="801.2"/>
    <line x1="805.8" y1="373.3" x2="1752.6" y2="796.7"/>
    <line x1="1545.7" y1="838.6" x2="454.4" y2="1044.7"/>
    <line x1="1894.9" y1="849.4" x2="868.6" y2="569.3"/>
    <line x1="1021.8" y1="966.5" x2="759.2" y2="674.7"/>
    <line x1="1700.7" y1="630.9" x2="297.0" y2="362.5"/>
    <line x1="802.0" y1="357.9" x2="91.9" y2="706.7"/>
    <line x1="1463.1" y1="1040.2" x2="1160.2" y2="782.0"/>
    <line x1="1879.7" y1="37.4" x2="1327.3" y2="489.5"/>
    <line x1="1672.4" y1="49.5" x2="120.9" y2="417.1"/>
  </g>
</svg>